<?xml version="1.0" encoding="utf-8" standalone="no"?>
<!DOCTYPE svg PUBLIC "-//W3C//DTD SVG 1.1//EN"
  "http://www.w3.org/Graphics/SVG/1.1/DTD/svg11.dtd">
<svg xmlns:xlink="http://www.w3.org/1999/xlink" width="857.377017pt" height="496.36975pt" viewBox="0 0 857.377017 496.36975" xmlns="http://www.w3.org/2000/svg" version="1.1">
 <metadata>
  <rdf:RDF xmlns:dc="http://purl.org/dc/elements/1.1/" xmlns:cc="http://creativecommons.org/ns#" xmlns:rdf="http://www.w3.org/1999/02/22-rdf-syntax-ns#">
   <cc:Work>
    <dc:type rdf:resource="http://purl.org/dc/dcmitype/StillImage"/>
    <dc:date>2026-02-09T14:37:12.964372</dc:date>
    <dc:format>image/svg+xml</dc:format>
    <dc:creator>
     <cc:Agent>
      <dc:title>Matplotlib v3.10.8, https://matplotlib.org/</dc:title>
     </cc:Agent>
    </dc:creator>
   </cc:Work>
  </rdf:RDF>
 </metadata>
 <defs>
  <style type="text/css">*{stroke-linejoin: round; stroke-linecap: butt}</style>
 </defs>
 <g id="figure_1">
  <g id="patch_1">
   <path d="M 0 496.36975 
L 857.377017 496.36975 
L 857.377017 0 
L 0 0 
z
" style="fill: #ffffff"/>
  </g>
  <g id="axes_1">
   <g id="patch_2">
    <path d="M 173.671562 456.784125 
L 832.438636 456.784125 
L 832.438636 39.624125 
L 173.671562 39.624125 
z
" style="fill: #ffffff"/>
   </g>
   <g id="patch_3">
    <path d="M 771.134988 437.822307 
L 203.61552 437.822307 
L 203.61552 406.864236 
L 771.134988 406.864236 
z
" clip-path="url(#p910c6671ec)" style="fill: #d62728; stroke: #000000; stroke-width: 0.5; stroke-linejoin: miter"/>
   </g>
   <g id="patch_4">
    <path d="M 771.134988 399.124719 
L 655.53664 399.124719 
L 655.53664 368.166648 
L 771.134988 368.166648 
z
" clip-path="url(#p910c6671ec)" style="fill: #d62728; stroke: #000000; stroke-width: 0.5; stroke-linejoin: miter"/>
   </g>
   <g id="patch_5">
    <path d="M 771.134988 360.427131 
L 764.632124 360.427131 
L 764.632124 329.46906 
L 771.134988 329.46906 
z
" clip-path="url(#p910c6671ec)" style="fill: #ff7f0e; stroke: #000000; stroke-width: 0.5; stroke-linejoin: miter"/>
   </g>
   <g id="patch_6">
    <path d="M 771.134988 321.729542 
L 768.408425 321.729542 
L 768.408425 290.771472 
L 771.134988 290.771472 
z
" clip-path="url(#p910c6671ec)" style="fill: #ff7f0e; stroke: #000000; stroke-width: 0.5; stroke-linejoin: miter"/>
   </g>
   <g id="patch_7">
    <path d="M 771.134988 283.031954 
L 770.050951 283.031954 
L 770.050951 252.073884 
L 771.134988 252.073884 
z
" clip-path="url(#p910c6671ec)" style="fill: #2ca02c; stroke: #000000; stroke-width: 0.5; stroke-linejoin: miter"/>
   </g>
   <g id="patch_8">
    <path d="M 771.134988 244.334366 
L 770.259468 244.334366 
L 770.259468 213.376296 
L 771.134988 213.376296 
z
" clip-path="url(#p910c6671ec)" style="fill: #2ca02c; stroke: #000000; stroke-width: 0.5; stroke-linejoin: miter"/>
   </g>
   <g id="patch_9">
    <path d="M 771.134988 205.636778 
L 771.134988 205.636778 
L 771.134988 174.678708 
L 771.134988 174.678708 
z
" clip-path="url(#p910c6671ec)" style="fill: #2ca02c; stroke: #000000; stroke-width: 0.5; stroke-linejoin: miter"/>
   </g>
   <g id="patch_10">
    <path d="M 771.134988 166.93919 
L 771.788442 166.93919 
L 771.788442 135.981119 
L 771.134988 135.981119 
z
" clip-path="url(#p910c6671ec)" style="fill: #2ca02c; stroke: #000000; stroke-width: 0.5; stroke-linejoin: miter"/>
   </g>
   <g id="patch_11">
    <path d="M 771.134988 128.241602 
L 802.077153 128.241602 
L 802.077153 97.283531 
L 771.134988 97.283531 
z
" clip-path="url(#p910c6671ec)" style="fill: #d62728; stroke: #000000; stroke-width: 0.5; stroke-linejoin: miter"/>
   </g>
   <g id="patch_12">
    <path d="M 771.134988 89.544014 
L 802.494679 89.544014 
L 802.494679 58.585943 
L 771.134988 58.585943 
z
" clip-path="url(#p910c6671ec)" style="fill: #d62728; stroke: #000000; stroke-width: 0.5; stroke-linejoin: miter"/>
   </g>
   <g id="matplotlib.axis_1">
    <g id="xtick_1">
     <g id="line2d_1">
      <defs>
       <path id="mde86609337" d="M 0 0 
L 0 3.5 
" style="stroke: #000000; stroke-width: 0.8"/>
      </defs>
      <g>
       <use xlink:href="#mde86609337" x="240.010979" y="456.784125" style="stroke: #000000; stroke-width: 0.8"/>
      </g>
     </g>
     <g id="text_1">
      <!-- −2000 -->
      <g transform="translate(223.096136 471.382562) scale(0.1 -0.1)">
       <defs>
        <path id="DejaVuSans-2212" d="M 678 2272 
L 4684 2272 
L 4684 1741 
L 678 1741 
L 678 2272 
z
" transform="scale(0.015625)"/>
        <path id="DejaVuSans-32" d="M 1228 531 
L 3431 531 
L 3431 0 
L 469 0 
L 469 531 
Q 828 903 1448 1529 
Q 2069 2156 2228 2338 
Q 2531 2678 2651 2914 
Q 2772 3150 2772 3378 
Q 2772 3750 2511 3984 
Q 2250 4219 1831 4219 
Q 1534 4219 1204 4116 
Q 875 4013 500 3803 
L 500 4441 
Q 881 4594 1212 4672 
Q 1544 4750 1819 4750 
Q 2544 4750 2975 4387 
Q 3406 4025 3406 3419 
Q 3406 3131 3298 2873 
Q 3191 2616 2906 2266 
Q 2828 2175 2409 1742 
Q 1991 1309 1228 531 
z
" transform="scale(0.015625)"/>
        <path id="DejaVuSans-30" d="M 2034 4250 
Q 1547 4250 1301 3770 
Q 1056 3291 1056 2328 
Q 1056 1369 1301 889 
Q 1547 409 2034 409 
Q 2525 409 2770 889 
Q 3016 1369 3016 2328 
Q 3016 3291 2770 3770 
Q 2525 4250 2034 4250 
z
M 2034 4750 
Q 2819 4750 3233 4129 
Q 3647 3509 3647 2328 
Q 3647 1150 3233 529 
Q 2819 -91 2034 -91 
Q 1250 -91 836 529 
Q 422 1150 422 2328 
Q 422 3509 836 4129 
Q 1250 4750 2034 4750 
z
" transform="scale(0.015625)"/>
       </defs>
       <use xlink:href="#DejaVuSans-2212"/>
       <use xlink:href="#DejaVuSans-32" transform="translate(83.789062 0)"/>
       <use xlink:href="#DejaVuSans-30" transform="translate(147.412109 0)"/>
       <use xlink:href="#DejaVuSans-30" transform="translate(211.035156 0)"/>
       <use xlink:href="#DejaVuSans-30" transform="translate(274.658203 0)"/>
      </g>
     </g>
    </g>
    <g id="xtick_2">
     <g id="line2d_2">
      <g>
       <use xlink:href="#mde86609337" x="372.791982" y="456.784125" style="stroke: #000000; stroke-width: 0.8"/>
      </g>
     </g>
     <g id="text_2">
      <!-- −1500 -->
      <g transform="translate(355.877138 471.382562) scale(0.1 -0.1)">
       <defs>
        <path id="DejaVuSans-31" d="M 794 531 
L 1825 531 
L 1825 4091 
L 703 3866 
L 703 4441 
L 1819 4666 
L 2450 4666 
L 2450 531 
L 3481 531 
L 3481 0 
L 794 0 
L 794 531 
z
" transform="scale(0.015625)"/>
        <path id="DejaVuSans-35" d="M 691 4666 
L 3169 4666 
L 3169 4134 
L 1269 4134 
L 1269 2991 
Q 1406 3038 1543 3061 
Q 1681 3084 1819 3084 
Q 2600 3084 3056 2656 
Q 3513 2228 3513 1497 
Q 3513 744 3044 326 
Q 2575 -91 1722 -91 
Q 1428 -91 1123 -41 
Q 819 9 494 109 
L 494 744 
Q 775 591 1075 516 
Q 1375 441 1709 441 
Q 2250 441 2565 725 
Q 2881 1009 2881 1497 
Q 2881 1984 2565 2268 
Q 2250 2553 1709 2553 
Q 1456 2553 1204 2497 
Q 953 2441 691 2322 
L 691 4666 
z
" transform="scale(0.015625)"/>
       </defs>
       <use xlink:href="#DejaVuSans-2212"/>
       <use xlink:href="#DejaVuSans-31" transform="translate(83.789062 0)"/>
       <use xlink:href="#DejaVuSans-35" transform="translate(147.412109 0)"/>
       <use xlink:href="#DejaVuSans-30" transform="translate(211.035156 0)"/>
       <use xlink:href="#DejaVuSans-30" transform="translate(274.658203 0)"/>
      </g>
     </g>
    </g>
    <g id="xtick_3">
     <g id="line2d_3">
      <g>
       <use xlink:href="#mde86609337" x="505.572984" y="456.784125" style="stroke: #000000; stroke-width: 0.8"/>
      </g>
     </g>
     <g id="text_3">
      <!-- −1000 -->
      <g transform="translate(488.65814 471.382562) scale(0.1 -0.1)">
       <use xlink:href="#DejaVuSans-2212"/>
       <use xlink:href="#DejaVuSans-31" transform="translate(83.789062 0)"/>
       <use xlink:href="#DejaVuSans-30" transform="translate(147.412109 0)"/>
       <use xlink:href="#DejaVuSans-30" transform="translate(211.035156 0)"/>
       <use xlink:href="#DejaVuSans-30" transform="translate(274.658203 0)"/>
      </g>
     </g>
    </g>
    <g id="xtick_4">
     <g id="line2d_4">
      <g>
       <use xlink:href="#mde86609337" x="638.353986" y="456.784125" style="stroke: #000000; stroke-width: 0.8"/>
      </g>
     </g>
     <g id="text_4">
      <!-- −500 -->
      <g transform="translate(624.620392 471.382562) scale(0.1 -0.1)">
       <use xlink:href="#DejaVuSans-2212"/>
       <use xlink:href="#DejaVuSans-35" transform="translate(83.789062 0)"/>
       <use xlink:href="#DejaVuSans-30" transform="translate(147.412109 0)"/>
       <use xlink:href="#DejaVuSans-30" transform="translate(211.035156 0)"/>
      </g>
     </g>
    </g>
    <g id="xtick_5">
     <g id="line2d_5">
      <g>
       <use xlink:href="#mde86609337" x="771.134988" y="456.784125" style="stroke: #000000; stroke-width: 0.8"/>
      </g>
     </g>
     <g id="text_5">
      <!-- 0 -->
      <g transform="translate(767.953738 471.382562) scale(0.1 -0.1)">
       <use xlink:href="#DejaVuSans-30"/>
      </g>
     </g>
    </g>
    <g id="text_6">
     <!-- Homozygous Reference Bias (%) -->
     <g transform="translate(393.566349 486.580375) scale(0.12 -0.12)">
      <defs>
       <path id="DejaVuSans-Bold-48" d="M 588 4666 
L 1791 4666 
L 1791 2888 
L 3566 2888 
L 3566 4666 
L 4769 4666 
L 4769 0 
L 3566 0 
L 3566 1978 
L 1791 1978 
L 1791 0 
L 588 0 
L 588 4666 
z
" transform="scale(0.015625)"/>
       <path id="DejaVuSans-Bold-6f" d="M 2203 2784 
Q 1831 2784 1636 2517 
Q 1441 2250 1441 1747 
Q 1441 1244 1636 976 
Q 1831 709 2203 709 
Q 2569 709 2762 976 
Q 2956 1244 2956 1747 
Q 2956 2250 2762 2517 
Q 2569 2784 2203 2784 
z
M 2203 3584 
Q 3106 3584 3614 3096 
Q 4122 2609 4122 1747 
Q 4122 884 3614 396 
Q 3106 -91 2203 -91 
Q 1297 -91 786 396 
Q 275 884 275 1747 
Q 275 2609 786 3096 
Q 1297 3584 2203 3584 
z
" transform="scale(0.015625)"/>
       <path id="DejaVuSans-Bold-6d" d="M 3781 2919 
Q 3994 3244 4286 3414 
Q 4578 3584 4928 3584 
Q 5531 3584 5847 3212 
Q 6163 2841 6163 2131 
L 6163 0 
L 5038 0 
L 5038 1825 
Q 5041 1866 5042 1909 
Q 5044 1953 5044 2034 
Q 5044 2406 4934 2573 
Q 4825 2741 4581 2741 
Q 4263 2741 4089 2478 
Q 3916 2216 3909 1719 
L 3909 0 
L 2784 0 
L 2784 1825 
Q 2784 2406 2684 2573 
Q 2584 2741 2328 2741 
Q 2006 2741 1831 2477 
Q 1656 2213 1656 1722 
L 1656 0 
L 531 0 
L 531 3500 
L 1656 3500 
L 1656 2988 
Q 1863 3284 2130 3434 
Q 2397 3584 2719 3584 
Q 3081 3584 3359 3409 
Q 3638 3234 3781 2919 
z
" transform="scale(0.015625)"/>
       <path id="DejaVuSans-Bold-7a" d="M 366 3500 
L 3419 3500 
L 3419 2719 
L 1575 800 
L 3419 800 
L 3419 0 
L 288 0 
L 288 781 
L 2131 2700 
L 366 2700 
L 366 3500 
z
" transform="scale(0.015625)"/>
       <path id="DejaVuSans-Bold-79" d="M 78 3500 
L 1197 3500 
L 2138 1125 
L 2938 3500 
L 4056 3500 
L 2584 -331 
Q 2363 -916 2067 -1148 
Q 1772 -1381 1288 -1381 
L 641 -1381 
L 641 -647 
L 991 -647 
Q 1275 -647 1404 -556 
Q 1534 -466 1606 -231 
L 1638 -134 
L 78 3500 
z
" transform="scale(0.015625)"/>
       <path id="DejaVuSans-Bold-67" d="M 2919 594 
Q 2688 288 2409 144 
Q 2131 0 1766 0 
Q 1125 0 706 504 
Q 288 1009 288 1791 
Q 288 2575 706 3076 
Q 1125 3578 1766 3578 
Q 2131 3578 2409 3434 
Q 2688 3291 2919 2981 
L 2919 3500 
L 4044 3500 
L 4044 353 
Q 4044 -491 3511 -936 
Q 2978 -1381 1966 -1381 
Q 1638 -1381 1331 -1331 
Q 1025 -1281 716 -1178 
L 716 -306 
Q 1009 -475 1290 -558 
Q 1572 -641 1856 -641 
Q 2406 -641 2662 -400 
Q 2919 -159 2919 353 
L 2919 594 
z
M 2181 2772 
Q 1834 2772 1640 2515 
Q 1447 2259 1447 1791 
Q 1447 1309 1634 1061 
Q 1822 813 2181 813 
Q 2531 813 2725 1069 
Q 2919 1325 2919 1791 
Q 2919 2259 2725 2515 
Q 2531 2772 2181 2772 
z
" transform="scale(0.015625)"/>
       <path id="DejaVuSans-Bold-75" d="M 500 1363 
L 500 3500 
L 1625 3500 
L 1625 3150 
Q 1625 2866 1622 2436 
Q 1619 2006 1619 1863 
Q 1619 1441 1641 1255 
Q 1663 1069 1716 984 
Q 1784 875 1895 815 
Q 2006 756 2150 756 
Q 2500 756 2700 1025 
Q 2900 1294 2900 1772 
L 2900 3500 
L 4019 3500 
L 4019 0 
L 2900 0 
L 2900 506 
Q 2647 200 2364 54 
Q 2081 -91 1741 -91 
Q 1134 -91 817 281 
Q 500 653 500 1363 
z
" transform="scale(0.015625)"/>
       <path id="DejaVuSans-Bold-73" d="M 3272 3391 
L 3272 2541 
Q 2913 2691 2578 2766 
Q 2244 2841 1947 2841 
Q 1628 2841 1473 2761 
Q 1319 2681 1319 2516 
Q 1319 2381 1436 2309 
Q 1553 2238 1856 2203 
L 2053 2175 
Q 2913 2066 3209 1816 
Q 3506 1566 3506 1031 
Q 3506 472 3093 190 
Q 2681 -91 1863 -91 
Q 1516 -91 1145 -36 
Q 775 19 384 128 
L 384 978 
Q 719 816 1070 734 
Q 1422 653 1784 653 
Q 2113 653 2278 743 
Q 2444 834 2444 1013 
Q 2444 1163 2330 1236 
Q 2216 1309 1875 1350 
L 1678 1375 
Q 931 1469 631 1722 
Q 331 1975 331 2491 
Q 331 3047 712 3315 
Q 1094 3584 1881 3584 
Q 2191 3584 2531 3537 
Q 2872 3491 3272 3391 
z
" transform="scale(0.015625)"/>
       <path id="DejaVuSans-Bold-20" transform="scale(0.015625)"/>
       <path id="DejaVuSans-Bold-52" d="M 2297 2597 
Q 2675 2597 2839 2737 
Q 3003 2878 3003 3200 
Q 3003 3519 2839 3656 
Q 2675 3794 2297 3794 
L 1791 3794 
L 1791 2597 
L 2297 2597 
z
M 1791 1766 
L 1791 0 
L 588 0 
L 588 4666 
L 2425 4666 
Q 3347 4666 3776 4356 
Q 4206 4047 4206 3378 
Q 4206 2916 3982 2619 
Q 3759 2322 3309 2181 
Q 3556 2125 3751 1926 
Q 3947 1728 4147 1325 
L 4800 0 
L 3519 0 
L 2950 1159 
Q 2778 1509 2601 1637 
Q 2425 1766 2131 1766 
L 1791 1766 
z
" transform="scale(0.015625)"/>
       <path id="DejaVuSans-Bold-65" d="M 4031 1759 
L 4031 1441 
L 1416 1441 
Q 1456 1047 1700 850 
Q 1944 653 2381 653 
Q 2734 653 3104 758 
Q 3475 863 3866 1075 
L 3866 213 
Q 3469 63 3072 -14 
Q 2675 -91 2278 -91 
Q 1328 -91 801 392 
Q 275 875 275 1747 
Q 275 2603 792 3093 
Q 1309 3584 2216 3584 
Q 3041 3584 3536 3087 
Q 4031 2591 4031 1759 
z
M 2881 2131 
Q 2881 2450 2695 2645 
Q 2509 2841 2209 2841 
Q 1884 2841 1681 2658 
Q 1478 2475 1428 2131 
L 2881 2131 
z
" transform="scale(0.015625)"/>
       <path id="DejaVuSans-Bold-66" d="M 2841 4863 
L 2841 4128 
L 2222 4128 
Q 1984 4128 1890 4042 
Q 1797 3956 1797 3744 
L 1797 3500 
L 2753 3500 
L 2753 2700 
L 1797 2700 
L 1797 0 
L 678 0 
L 678 2700 
L 122 2700 
L 122 3500 
L 678 3500 
L 678 3744 
Q 678 4316 997 4589 
Q 1316 4863 1984 4863 
L 2841 4863 
z
" transform="scale(0.015625)"/>
       <path id="DejaVuSans-Bold-72" d="M 3138 2547 
Q 2991 2616 2845 2648 
Q 2700 2681 2553 2681 
Q 2122 2681 1889 2404 
Q 1656 2128 1656 1613 
L 1656 0 
L 538 0 
L 538 3500 
L 1656 3500 
L 1656 2925 
Q 1872 3269 2151 3426 
Q 2431 3584 2822 3584 
Q 2878 3584 2943 3579 
Q 3009 3575 3134 3559 
L 3138 2547 
z
" transform="scale(0.015625)"/>
       <path id="DejaVuSans-Bold-6e" d="M 4056 2131 
L 4056 0 
L 2931 0 
L 2931 347 
L 2931 1631 
Q 2931 2084 2911 2256 
Q 2891 2428 2841 2509 
Q 2775 2619 2662 2680 
Q 2550 2741 2406 2741 
Q 2056 2741 1856 2470 
Q 1656 2200 1656 1722 
L 1656 0 
L 538 0 
L 538 3500 
L 1656 3500 
L 1656 2988 
Q 1909 3294 2193 3439 
Q 2478 3584 2822 3584 
Q 3428 3584 3742 3212 
Q 4056 2841 4056 2131 
z
" transform="scale(0.015625)"/>
       <path id="DejaVuSans-Bold-63" d="M 3366 3391 
L 3366 2478 
Q 3138 2634 2908 2709 
Q 2678 2784 2431 2784 
Q 1963 2784 1702 2511 
Q 1441 2238 1441 1747 
Q 1441 1256 1702 982 
Q 1963 709 2431 709 
Q 2694 709 2930 787 
Q 3166 866 3366 1019 
L 3366 103 
Q 3103 6 2833 -42 
Q 2563 -91 2291 -91 
Q 1344 -91 809 395 
Q 275 881 275 1747 
Q 275 2613 809 3098 
Q 1344 3584 2291 3584 
Q 2566 3584 2833 3536 
Q 3100 3488 3366 3391 
z
" transform="scale(0.015625)"/>
       <path id="DejaVuSans-Bold-42" d="M 2456 2859 
Q 2741 2859 2887 2984 
Q 3034 3109 3034 3353 
Q 3034 3594 2887 3720 
Q 2741 3847 2456 3847 
L 1791 3847 
L 1791 2859 
L 2456 2859 
z
M 2497 819 
Q 2859 819 3042 972 
Q 3225 1125 3225 1434 
Q 3225 1738 3044 1889 
Q 2863 2041 2497 2041 
L 1791 2041 
L 1791 819 
L 2497 819 
z
M 3616 2497 
Q 4003 2384 4215 2081 
Q 4428 1778 4428 1338 
Q 4428 663 3972 331 
Q 3516 0 2584 0 
L 588 0 
L 588 4666 
L 2394 4666 
Q 3366 4666 3802 4372 
Q 4238 4078 4238 3431 
Q 4238 3091 4078 2852 
Q 3919 2613 3616 2497 
z
" transform="scale(0.015625)"/>
       <path id="DejaVuSans-Bold-69" d="M 538 3500 
L 1656 3500 
L 1656 0 
L 538 0 
L 538 3500 
z
M 538 4863 
L 1656 4863 
L 1656 3950 
L 538 3950 
L 538 4863 
z
" transform="scale(0.015625)"/>
       <path id="DejaVuSans-Bold-61" d="M 2106 1575 
Q 1756 1575 1579 1456 
Q 1403 1338 1403 1106 
Q 1403 894 1545 773 
Q 1688 653 1941 653 
Q 2256 653 2472 879 
Q 2688 1106 2688 1447 
L 2688 1575 
L 2106 1575 
z
M 3816 1997 
L 3816 0 
L 2688 0 
L 2688 519 
Q 2463 200 2181 54 
Q 1900 -91 1497 -91 
Q 953 -91 614 226 
Q 275 544 275 1050 
Q 275 1666 698 1953 
Q 1122 2241 2028 2241 
L 2688 2241 
L 2688 2328 
Q 2688 2594 2478 2717 
Q 2269 2841 1825 2841 
Q 1466 2841 1156 2769 
Q 847 2697 581 2553 
L 581 3406 
Q 941 3494 1303 3539 
Q 1666 3584 2028 3584 
Q 2975 3584 3395 3211 
Q 3816 2838 3816 1997 
z
" transform="scale(0.015625)"/>
       <path id="DejaVuSans-Bold-28" d="M 2413 -844 
L 1484 -844 
Q 1006 -72 778 623 
Q 550 1319 550 2003 
Q 550 2688 779 3389 
Q 1009 4091 1484 4856 
L 2413 4856 
Q 2013 4116 1813 3408 
Q 1613 2700 1613 2009 
Q 1613 1319 1811 609 
Q 2009 -100 2413 -844 
z
" transform="scale(0.015625)"/>
       <path id="DejaVuSans-Bold-25" d="M 4959 1925 
Q 4738 1925 4616 1733 
Q 4494 1541 4494 1184 
Q 4494 825 4614 633 
Q 4734 441 4959 441 
Q 5184 441 5303 633 
Q 5422 825 5422 1184 
Q 5422 1541 5301 1733 
Q 5181 1925 4959 1925 
z
M 4959 2450 
Q 5541 2450 5875 2112 
Q 6209 1775 6209 1184 
Q 6209 594 5875 251 
Q 5541 -91 4959 -91 
Q 4378 -91 4042 251 
Q 3706 594 3706 1184 
Q 3706 1772 4042 2111 
Q 4378 2450 4959 2450 
z
M 2094 -91 
L 1403 -91 
L 4319 4750 
L 5013 4750 
L 2094 -91 
z
M 1453 4750 
Q 2034 4750 2367 4411 
Q 2700 4072 2700 3481 
Q 2700 2891 2367 2550 
Q 2034 2209 1453 2209 
Q 872 2209 539 2550 
Q 206 2891 206 3481 
Q 206 4072 539 4411 
Q 872 4750 1453 4750 
z
M 1453 4225 
Q 1228 4225 1106 4031 
Q 984 3838 984 3481 
Q 984 3122 1106 2926 
Q 1228 2731 1453 2731 
Q 1678 2731 1798 2926 
Q 1919 3122 1919 3481 
Q 1919 3838 1797 4031 
Q 1675 4225 1453 4225 
z
" transform="scale(0.015625)"/>
       <path id="DejaVuSans-Bold-29" d="M 513 -844 
Q 913 -100 1113 609 
Q 1313 1319 1313 2009 
Q 1313 2700 1113 3408 
Q 913 4116 513 4856 
L 1441 4856 
Q 1916 4091 2145 3389 
Q 2375 2688 2375 2003 
Q 2375 1319 2147 623 
Q 1919 -72 1441 -844 
L 513 -844 
z
" transform="scale(0.015625)"/>
      </defs>
      <use xlink:href="#DejaVuSans-Bold-48"/>
      <use xlink:href="#DejaVuSans-Bold-6f" transform="translate(83.691406 0)"/>
      <use xlink:href="#DejaVuSans-Bold-6d" transform="translate(152.392578 0)"/>
      <use xlink:href="#DejaVuSans-Bold-6f" transform="translate(256.591797 0)"/>
      <use xlink:href="#DejaVuSans-Bold-7a" transform="translate(325.292969 0)"/>
      <use xlink:href="#DejaVuSans-Bold-79" transform="translate(383.496094 0)"/>
      <use xlink:href="#DejaVuSans-Bold-67" transform="translate(448.681641 0)"/>
      <use xlink:href="#DejaVuSans-Bold-6f" transform="translate(520.263672 0)"/>
      <use xlink:href="#DejaVuSans-Bold-75" transform="translate(588.964844 0)"/>
      <use xlink:href="#DejaVuSans-Bold-73" transform="translate(660.15625 0)"/>
      <use xlink:href="#DejaVuSans-Bold-20" transform="translate(719.677734 0)"/>
      <use xlink:href="#DejaVuSans-Bold-52" transform="translate(754.492188 0)"/>
      <use xlink:href="#DejaVuSans-Bold-65" transform="translate(831.494141 0)"/>
      <use xlink:href="#DejaVuSans-Bold-66" transform="translate(899.316406 0)"/>
      <use xlink:href="#DejaVuSans-Bold-65" transform="translate(942.822266 0)"/>
      <use xlink:href="#DejaVuSans-Bold-72" transform="translate(1010.644531 0)"/>
      <use xlink:href="#DejaVuSans-Bold-65" transform="translate(1059.960938 0)"/>
      <use xlink:href="#DejaVuSans-Bold-6e" transform="translate(1127.783203 0)"/>
      <use xlink:href="#DejaVuSans-Bold-63" transform="translate(1198.974609 0)"/>
      <use xlink:href="#DejaVuSans-Bold-65" transform="translate(1258.251953 0)"/>
      <use xlink:href="#DejaVuSans-Bold-20" transform="translate(1326.074219 0)"/>
      <use xlink:href="#DejaVuSans-Bold-42" transform="translate(1360.888672 0)"/>
      <use xlink:href="#DejaVuSans-Bold-69" transform="translate(1437.109375 0)"/>
      <use xlink:href="#DejaVuSans-Bold-61" transform="translate(1471.386719 0)"/>
      <use xlink:href="#DejaVuSans-Bold-73" transform="translate(1538.867188 0)"/>
      <use xlink:href="#DejaVuSans-Bold-20" transform="translate(1598.388672 0)"/>
      <use xlink:href="#DejaVuSans-Bold-28" transform="translate(1633.203125 0)"/>
      <use xlink:href="#DejaVuSans-Bold-25" transform="translate(1678.90625 0)"/>
      <use xlink:href="#DejaVuSans-Bold-29" transform="translate(1779.101562 0)"/>
     </g>
    </g>
   </g>
   <g id="matplotlib.axis_2">
    <g id="ytick_1">
     <g id="line2d_6">
      <defs>
       <path id="m0d89ab9840" d="M 0 0 
L -3.5 0 
" style="stroke: #000000; stroke-width: 0.8"/>
      </defs>
      <g>
       <use xlink:href="#m0d89ab9840" x="173.671562" y="422.343272" style="stroke: #000000; stroke-width: 0.8"/>
      </g>
     </g>
     <g id="text_7">
      <!-- Rowen - CHD -->
      <g transform="translate(101.218437 426.14249) scale(0.1 -0.1)">
       <defs>
        <path id="DejaVuSans-52" d="M 2841 2188 
Q 3044 2119 3236 1894 
Q 3428 1669 3622 1275 
L 4263 0 
L 3584 0 
L 2988 1197 
Q 2756 1666 2539 1819 
Q 2322 1972 1947 1972 
L 1259 1972 
L 1259 0 
L 628 0 
L 628 4666 
L 2053 4666 
Q 2853 4666 3247 4331 
Q 3641 3997 3641 3322 
Q 3641 2881 3436 2590 
Q 3231 2300 2841 2188 
z
M 1259 4147 
L 1259 2491 
L 2053 2491 
Q 2509 2491 2742 2702 
Q 2975 2913 2975 3322 
Q 2975 3731 2742 3939 
Q 2509 4147 2053 4147 
L 1259 4147 
z
" transform="scale(0.015625)"/>
        <path id="DejaVuSans-6f" d="M 1959 3097 
Q 1497 3097 1228 2736 
Q 959 2375 959 1747 
Q 959 1119 1226 758 
Q 1494 397 1959 397 
Q 2419 397 2687 759 
Q 2956 1122 2956 1747 
Q 2956 2369 2687 2733 
Q 2419 3097 1959 3097 
z
M 1959 3584 
Q 2709 3584 3137 3096 
Q 3566 2609 3566 1747 
Q 3566 888 3137 398 
Q 2709 -91 1959 -91 
Q 1206 -91 779 398 
Q 353 888 353 1747 
Q 353 2609 779 3096 
Q 1206 3584 1959 3584 
z
" transform="scale(0.015625)"/>
        <path id="DejaVuSans-77" d="M 269 3500 
L 844 3500 
L 1563 769 
L 2278 3500 
L 2956 3500 
L 3675 769 
L 4391 3500 
L 4966 3500 
L 4050 0 
L 3372 0 
L 2619 2869 
L 1863 0 
L 1184 0 
L 269 3500 
z
" transform="scale(0.015625)"/>
        <path id="DejaVuSans-65" d="M 3597 1894 
L 3597 1613 
L 953 1613 
Q 991 1019 1311 708 
Q 1631 397 2203 397 
Q 2534 397 2845 478 
Q 3156 559 3463 722 
L 3463 178 
Q 3153 47 2828 -22 
Q 2503 -91 2169 -91 
Q 1331 -91 842 396 
Q 353 884 353 1716 
Q 353 2575 817 3079 
Q 1281 3584 2069 3584 
Q 2775 3584 3186 3129 
Q 3597 2675 3597 1894 
z
M 3022 2063 
Q 3016 2534 2758 2815 
Q 2500 3097 2075 3097 
Q 1594 3097 1305 2825 
Q 1016 2553 972 2059 
L 3022 2063 
z
" transform="scale(0.015625)"/>
        <path id="DejaVuSans-6e" d="M 3513 2113 
L 3513 0 
L 2938 0 
L 2938 2094 
Q 2938 2591 2744 2837 
Q 2550 3084 2163 3084 
Q 1697 3084 1428 2787 
Q 1159 2491 1159 1978 
L 1159 0 
L 581 0 
L 581 3500 
L 1159 3500 
L 1159 2956 
Q 1366 3272 1645 3428 
Q 1925 3584 2291 3584 
Q 2894 3584 3203 3211 
Q 3513 2838 3513 2113 
z
" transform="scale(0.015625)"/>
        <path id="DejaVuSans-20" transform="scale(0.015625)"/>
        <path id="DejaVuSans-2d" d="M 313 2009 
L 1997 2009 
L 1997 1497 
L 313 1497 
L 313 2009 
z
" transform="scale(0.015625)"/>
        <path id="DejaVuSans-43" d="M 4122 4306 
L 4122 3641 
Q 3803 3938 3442 4084 
Q 3081 4231 2675 4231 
Q 1875 4231 1450 3742 
Q 1025 3253 1025 2328 
Q 1025 1406 1450 917 
Q 1875 428 2675 428 
Q 3081 428 3442 575 
Q 3803 722 4122 1019 
L 4122 359 
Q 3791 134 3420 21 
Q 3050 -91 2638 -91 
Q 1578 -91 968 557 
Q 359 1206 359 2328 
Q 359 3453 968 4101 
Q 1578 4750 2638 4750 
Q 3056 4750 3426 4639 
Q 3797 4528 4122 4306 
z
" transform="scale(0.015625)"/>
        <path id="DejaVuSans-48" d="M 628 4666 
L 1259 4666 
L 1259 2753 
L 3553 2753 
L 3553 4666 
L 4184 4666 
L 4184 0 
L 3553 0 
L 3553 2222 
L 1259 2222 
L 1259 0 
L 628 0 
L 628 4666 
z
" transform="scale(0.015625)"/>
        <path id="DejaVuSans-44" d="M 1259 4147 
L 1259 519 
L 2022 519 
Q 2988 519 3436 956 
Q 3884 1394 3884 2338 
Q 3884 3275 3436 3711 
Q 2988 4147 2022 4147 
L 1259 4147 
z
M 628 4666 
L 1925 4666 
Q 3281 4666 3915 4102 
Q 4550 3538 4550 2338 
Q 4550 1131 3912 565 
Q 3275 0 1925 0 
L 628 0 
L 628 4666 
z
" transform="scale(0.015625)"/>
       </defs>
       <use xlink:href="#DejaVuSans-52"/>
       <use xlink:href="#DejaVuSans-6f" transform="translate(64.982422 0)"/>
       <use xlink:href="#DejaVuSans-77" transform="translate(126.164062 0)"/>
       <use xlink:href="#DejaVuSans-65" transform="translate(207.951172 0)"/>
       <use xlink:href="#DejaVuSans-6e" transform="translate(269.474609 0)"/>
       <use xlink:href="#DejaVuSans-20" transform="translate(332.853516 0)"/>
       <use xlink:href="#DejaVuSans-2d" transform="translate(364.640625 0)"/>
       <use xlink:href="#DejaVuSans-20" transform="translate(400.724609 0)"/>
       <use xlink:href="#DejaVuSans-43" transform="translate(432.511719 0)"/>
       <use xlink:href="#DejaVuSans-48" transform="translate(502.335938 0)"/>
       <use xlink:href="#DejaVuSans-44" transform="translate(577.53125 0)"/>
      </g>
     </g>
    </g>
    <g id="ytick_2">
     <g id="line2d_7">
      <g>
       <use xlink:href="#m0d89ab9840" x="173.671562" y="383.645683" style="stroke: #000000; stroke-width: 0.8"/>
      </g>
     </g>
     <g id="text_8">
      <!-- Trent - CHD -->
      <g transform="translate(109.574687 387.444902) scale(0.1 -0.1)">
       <defs>
        <path id="DejaVuSans-54" d="M -19 4666 
L 3928 4666 
L 3928 4134 
L 2272 4134 
L 2272 0 
L 1638 0 
L 1638 4134 
L -19 4134 
L -19 4666 
z
" transform="scale(0.015625)"/>
        <path id="DejaVuSans-72" d="M 2631 2963 
Q 2534 3019 2420 3045 
Q 2306 3072 2169 3072 
Q 1681 3072 1420 2755 
Q 1159 2438 1159 1844 
L 1159 0 
L 581 0 
L 581 3500 
L 1159 3500 
L 1159 2956 
Q 1341 3275 1631 3429 
Q 1922 3584 2338 3584 
Q 2397 3584 2469 3576 
Q 2541 3569 2628 3553 
L 2631 2963 
z
" transform="scale(0.015625)"/>
        <path id="DejaVuSans-74" d="M 1172 4494 
L 1172 3500 
L 2356 3500 
L 2356 3053 
L 1172 3053 
L 1172 1153 
Q 1172 725 1289 603 
Q 1406 481 1766 481 
L 2356 481 
L 2356 0 
L 1766 0 
Q 1100 0 847 248 
Q 594 497 594 1153 
L 594 3053 
L 172 3053 
L 172 3500 
L 594 3500 
L 594 4494 
L 1172 4494 
z
" transform="scale(0.015625)"/>
       </defs>
       <use xlink:href="#DejaVuSans-54"/>
       <use xlink:href="#DejaVuSans-72" transform="translate(46.333984 0)"/>
       <use xlink:href="#DejaVuSans-65" transform="translate(85.197266 0)"/>
       <use xlink:href="#DejaVuSans-6e" transform="translate(146.720703 0)"/>
       <use xlink:href="#DejaVuSans-74" transform="translate(210.099609 0)"/>
       <use xlink:href="#DejaVuSans-20" transform="translate(249.308594 0)"/>
       <use xlink:href="#DejaVuSans-2d" transform="translate(281.095703 0)"/>
       <use xlink:href="#DejaVuSans-20" transform="translate(317.179688 0)"/>
       <use xlink:href="#DejaVuSans-43" transform="translate(348.966797 0)"/>
       <use xlink:href="#DejaVuSans-48" transform="translate(418.791016 0)"/>
       <use xlink:href="#DejaVuSans-44" transform="translate(493.986328 0)"/>
      </g>
     </g>
    </g>
    <g id="ytick_3">
     <g id="line2d_8">
      <g>
       <use xlink:href="#m0d89ab9840" x="173.671562" y="344.948095" style="stroke: #000000; stroke-width: 0.8"/>
      </g>
     </g>
     <g id="text_9">
      <!-- Rowen - Type 2 Diabetes -->
      <g transform="translate(43.346562 348.747314) scale(0.1 -0.1)">
       <defs>
        <path id="DejaVuSans-79" d="M 2059 -325 
Q 1816 -950 1584 -1140 
Q 1353 -1331 966 -1331 
L 506 -1331 
L 506 -850 
L 844 -850 
Q 1081 -850 1212 -737 
Q 1344 -625 1503 -206 
L 1606 56 
L 191 3500 
L 800 3500 
L 1894 763 
L 2988 3500 
L 3597 3500 
L 2059 -325 
z
" transform="scale(0.015625)"/>
        <path id="DejaVuSans-70" d="M 1159 525 
L 1159 -1331 
L 581 -1331 
L 581 3500 
L 1159 3500 
L 1159 2969 
Q 1341 3281 1617 3432 
Q 1894 3584 2278 3584 
Q 2916 3584 3314 3078 
Q 3713 2572 3713 1747 
Q 3713 922 3314 415 
Q 2916 -91 2278 -91 
Q 1894 -91 1617 61 
Q 1341 213 1159 525 
z
M 3116 1747 
Q 3116 2381 2855 2742 
Q 2594 3103 2138 3103 
Q 1681 3103 1420 2742 
Q 1159 2381 1159 1747 
Q 1159 1113 1420 752 
Q 1681 391 2138 391 
Q 2594 391 2855 752 
Q 3116 1113 3116 1747 
z
" transform="scale(0.015625)"/>
        <path id="DejaVuSans-69" d="M 603 3500 
L 1178 3500 
L 1178 0 
L 603 0 
L 603 3500 
z
M 603 4863 
L 1178 4863 
L 1178 4134 
L 603 4134 
L 603 4863 
z
" transform="scale(0.015625)"/>
        <path id="DejaVuSans-61" d="M 2194 1759 
Q 1497 1759 1228 1600 
Q 959 1441 959 1056 
Q 959 750 1161 570 
Q 1363 391 1709 391 
Q 2188 391 2477 730 
Q 2766 1069 2766 1631 
L 2766 1759 
L 2194 1759 
z
M 3341 1997 
L 3341 0 
L 2766 0 
L 2766 531 
Q 2569 213 2275 61 
Q 1981 -91 1556 -91 
Q 1019 -91 701 211 
Q 384 513 384 1019 
Q 384 1609 779 1909 
Q 1175 2209 1959 2209 
L 2766 2209 
L 2766 2266 
Q 2766 2663 2505 2880 
Q 2244 3097 1772 3097 
Q 1472 3097 1187 3025 
Q 903 2953 641 2809 
L 641 3341 
Q 956 3463 1253 3523 
Q 1550 3584 1831 3584 
Q 2591 3584 2966 3190 
Q 3341 2797 3341 1997 
z
" transform="scale(0.015625)"/>
        <path id="DejaVuSans-62" d="M 3116 1747 
Q 3116 2381 2855 2742 
Q 2594 3103 2138 3103 
Q 1681 3103 1420 2742 
Q 1159 2381 1159 1747 
Q 1159 1113 1420 752 
Q 1681 391 2138 391 
Q 2594 391 2855 752 
Q 3116 1113 3116 1747 
z
M 1159 2969 
Q 1341 3281 1617 3432 
Q 1894 3584 2278 3584 
Q 2916 3584 3314 3078 
Q 3713 2572 3713 1747 
Q 3713 922 3314 415 
Q 2916 -91 2278 -91 
Q 1894 -91 1617 61 
Q 1341 213 1159 525 
L 1159 0 
L 581 0 
L 581 4863 
L 1159 4863 
L 1159 2969 
z
" transform="scale(0.015625)"/>
        <path id="DejaVuSans-73" d="M 2834 3397 
L 2834 2853 
Q 2591 2978 2328 3040 
Q 2066 3103 1784 3103 
Q 1356 3103 1142 2972 
Q 928 2841 928 2578 
Q 928 2378 1081 2264 
Q 1234 2150 1697 2047 
L 1894 2003 
Q 2506 1872 2764 1633 
Q 3022 1394 3022 966 
Q 3022 478 2636 193 
Q 2250 -91 1575 -91 
Q 1294 -91 989 -36 
Q 684 19 347 128 
L 347 722 
Q 666 556 975 473 
Q 1284 391 1588 391 
Q 1994 391 2212 530 
Q 2431 669 2431 922 
Q 2431 1156 2273 1281 
Q 2116 1406 1581 1522 
L 1381 1569 
Q 847 1681 609 1914 
Q 372 2147 372 2553 
Q 372 3047 722 3315 
Q 1072 3584 1716 3584 
Q 2034 3584 2315 3537 
Q 2597 3491 2834 3397 
z
" transform="scale(0.015625)"/>
       </defs>
       <use xlink:href="#DejaVuSans-52"/>
       <use xlink:href="#DejaVuSans-6f" transform="translate(64.982422 0)"/>
       <use xlink:href="#DejaVuSans-77" transform="translate(126.164062 0)"/>
       <use xlink:href="#DejaVuSans-65" transform="translate(207.951172 0)"/>
       <use xlink:href="#DejaVuSans-6e" transform="translate(269.474609 0)"/>
       <use xlink:href="#DejaVuSans-20" transform="translate(332.853516 0)"/>
       <use xlink:href="#DejaVuSans-2d" transform="translate(364.640625 0)"/>
       <use xlink:href="#DejaVuSans-20" transform="translate(400.724609 0)"/>
       <use xlink:href="#DejaVuSans-54" transform="translate(432.511719 0)"/>
       <use xlink:href="#DejaVuSans-79" transform="translate(477.970703 0)"/>
       <use xlink:href="#DejaVuSans-70" transform="translate(537.150391 0)"/>
       <use xlink:href="#DejaVuSans-65" transform="translate(600.626953 0)"/>
       <use xlink:href="#DejaVuSans-20" transform="translate(662.150391 0)"/>
       <use xlink:href="#DejaVuSans-32" transform="translate(693.9375 0)"/>
       <use xlink:href="#DejaVuSans-20" transform="translate(757.560547 0)"/>
       <use xlink:href="#DejaVuSans-44" transform="translate(789.347656 0)"/>
       <use xlink:href="#DejaVuSans-69" transform="translate(866.349609 0)"/>
       <use xlink:href="#DejaVuSans-61" transform="translate(894.132812 0)"/>
       <use xlink:href="#DejaVuSans-62" transform="translate(955.412109 0)"/>
       <use xlink:href="#DejaVuSans-65" transform="translate(1018.888672 0)"/>
       <use xlink:href="#DejaVuSans-74" transform="translate(1080.412109 0)"/>
       <use xlink:href="#DejaVuSans-65" transform="translate(1119.621094 0)"/>
       <use xlink:href="#DejaVuSans-73" transform="translate(1181.144531 0)"/>
      </g>
     </g>
    </g>
    <g id="ytick_4">
     <g id="line2d_9">
      <g>
       <use xlink:href="#m0d89ab9840" x="173.671562" y="306.250507" style="stroke: #000000; stroke-width: 0.8"/>
      </g>
     </g>
     <g id="text_10">
      <!-- Trent - Type 2 Diabetes -->
      <g transform="translate(51.702812 310.049726) scale(0.1 -0.1)">
       <use xlink:href="#DejaVuSans-54"/>
       <use xlink:href="#DejaVuSans-72" transform="translate(46.333984 0)"/>
       <use xlink:href="#DejaVuSans-65" transform="translate(85.197266 0)"/>
       <use xlink:href="#DejaVuSans-6e" transform="translate(146.720703 0)"/>
       <use xlink:href="#DejaVuSans-74" transform="translate(210.099609 0)"/>
       <use xlink:href="#DejaVuSans-20" transform="translate(249.308594 0)"/>
       <use xlink:href="#DejaVuSans-2d" transform="translate(281.095703 0)"/>
       <use xlink:href="#DejaVuSans-20" transform="translate(317.179688 0)"/>
       <use xlink:href="#DejaVuSans-54" transform="translate(348.966797 0)"/>
       <use xlink:href="#DejaVuSans-79" transform="translate(394.425781 0)"/>
       <use xlink:href="#DejaVuSans-70" transform="translate(453.605469 0)"/>
       <use xlink:href="#DejaVuSans-65" transform="translate(517.082031 0)"/>
       <use xlink:href="#DejaVuSans-20" transform="translate(578.605469 0)"/>
       <use xlink:href="#DejaVuSans-32" transform="translate(610.392578 0)"/>
       <use xlink:href="#DejaVuSans-20" transform="translate(674.015625 0)"/>
       <use xlink:href="#DejaVuSans-44" transform="translate(705.802734 0)"/>
       <use xlink:href="#DejaVuSans-69" transform="translate(782.804688 0)"/>
       <use xlink:href="#DejaVuSans-61" transform="translate(810.587891 0)"/>
       <use xlink:href="#DejaVuSans-62" transform="translate(871.867188 0)"/>
       <use xlink:href="#DejaVuSans-65" transform="translate(935.34375 0)"/>
       <use xlink:href="#DejaVuSans-74" transform="translate(996.867188 0)"/>
       <use xlink:href="#DejaVuSans-65" transform="translate(1036.076172 0)"/>
       <use xlink:href="#DejaVuSans-73" transform="translate(1097.599609 0)"/>
      </g>
     </g>
    </g>
    <g id="ytick_5">
     <g id="line2d_10">
      <g>
       <use xlink:href="#m0d89ab9840" x="173.671562" y="267.552919" style="stroke: #000000; stroke-width: 0.8"/>
      </g>
     </g>
     <g id="text_11">
      <!-- Trent - CAD -->
      <g transform="translate(110.254375 271.352138) scale(0.1 -0.1)">
       <defs>
        <path id="DejaVuSans-41" d="M 2188 4044 
L 1331 1722 
L 3047 1722 
L 2188 4044 
z
M 1831 4666 
L 2547 4666 
L 4325 0 
L 3669 0 
L 3244 1197 
L 1141 1197 
L 716 0 
L 50 0 
L 1831 4666 
z
" transform="scale(0.015625)"/>
       </defs>
       <use xlink:href="#DejaVuSans-54"/>
       <use xlink:href="#DejaVuSans-72" transform="translate(46.333984 0)"/>
       <use xlink:href="#DejaVuSans-65" transform="translate(85.197266 0)"/>
       <use xlink:href="#DejaVuSans-6e" transform="translate(146.720703 0)"/>
       <use xlink:href="#DejaVuSans-74" transform="translate(210.099609 0)"/>
       <use xlink:href="#DejaVuSans-20" transform="translate(249.308594 0)"/>
       <use xlink:href="#DejaVuSans-2d" transform="translate(281.095703 0)"/>
       <use xlink:href="#DejaVuSans-20" transform="translate(317.179688 0)"/>
       <use xlink:href="#DejaVuSans-43" transform="translate(348.966797 0)"/>
       <use xlink:href="#DejaVuSans-41" transform="translate(418.791016 0)"/>
       <use xlink:href="#DejaVuSans-44" transform="translate(487.199219 0)"/>
      </g>
     </g>
    </g>
    <g id="ytick_6">
     <g id="line2d_11">
      <g>
       <use xlink:href="#m0d89ab9840" x="173.671562" y="228.855331" style="stroke: #000000; stroke-width: 0.8"/>
      </g>
     </g>
     <g id="text_12">
      <!-- Trent - Alzheimer's Disease -->
      <g transform="translate(31.17 232.65455) scale(0.1 -0.1)">
       <defs>
        <path id="DejaVuSans-6c" d="M 603 4863 
L 1178 4863 
L 1178 0 
L 603 0 
L 603 4863 
z
" transform="scale(0.015625)"/>
        <path id="DejaVuSans-7a" d="M 353 3500 
L 3084 3500 
L 3084 2975 
L 922 459 
L 3084 459 
L 3084 0 
L 275 0 
L 275 525 
L 2438 3041 
L 353 3041 
L 353 3500 
z
" transform="scale(0.015625)"/>
        <path id="DejaVuSans-68" d="M 3513 2113 
L 3513 0 
L 2938 0 
L 2938 2094 
Q 2938 2591 2744 2837 
Q 2550 3084 2163 3084 
Q 1697 3084 1428 2787 
Q 1159 2491 1159 1978 
L 1159 0 
L 581 0 
L 581 4863 
L 1159 4863 
L 1159 2956 
Q 1366 3272 1645 3428 
Q 1925 3584 2291 3584 
Q 2894 3584 3203 3211 
Q 3513 2838 3513 2113 
z
" transform="scale(0.015625)"/>
        <path id="DejaVuSans-6d" d="M 3328 2828 
Q 3544 3216 3844 3400 
Q 4144 3584 4550 3584 
Q 5097 3584 5394 3201 
Q 5691 2819 5691 2113 
L 5691 0 
L 5113 0 
L 5113 2094 
Q 5113 2597 4934 2840 
Q 4756 3084 4391 3084 
Q 3944 3084 3684 2787 
Q 3425 2491 3425 1978 
L 3425 0 
L 2847 0 
L 2847 2094 
Q 2847 2600 2669 2842 
Q 2491 3084 2119 3084 
Q 1678 3084 1418 2786 
Q 1159 2488 1159 1978 
L 1159 0 
L 581 0 
L 581 3500 
L 1159 3500 
L 1159 2956 
Q 1356 3278 1631 3431 
Q 1906 3584 2284 3584 
Q 2666 3584 2933 3390 
Q 3200 3197 3328 2828 
z
" transform="scale(0.015625)"/>
        <path id="DejaVuSans-27" d="M 1147 4666 
L 1147 2931 
L 616 2931 
L 616 4666 
L 1147 4666 
z
" transform="scale(0.015625)"/>
       </defs>
       <use xlink:href="#DejaVuSans-54"/>
       <use xlink:href="#DejaVuSans-72" transform="translate(46.333984 0)"/>
       <use xlink:href="#DejaVuSans-65" transform="translate(85.197266 0)"/>
       <use xlink:href="#DejaVuSans-6e" transform="translate(146.720703 0)"/>
       <use xlink:href="#DejaVuSans-74" transform="translate(210.099609 0)"/>
       <use xlink:href="#DejaVuSans-20" transform="translate(249.308594 0)"/>
       <use xlink:href="#DejaVuSans-2d" transform="translate(281.095703 0)"/>
       <use xlink:href="#DejaVuSans-20" transform="translate(317.179688 0)"/>
       <use xlink:href="#DejaVuSans-41" transform="translate(348.966797 0)"/>
       <use xlink:href="#DejaVuSans-6c" transform="translate(417.375 0)"/>
       <use xlink:href="#DejaVuSans-7a" transform="translate(445.158203 0)"/>
       <use xlink:href="#DejaVuSans-68" transform="translate(497.648438 0)"/>
       <use xlink:href="#DejaVuSans-65" transform="translate(561.027344 0)"/>
       <use xlink:href="#DejaVuSans-69" transform="translate(622.550781 0)"/>
       <use xlink:href="#DejaVuSans-6d" transform="translate(650.333984 0)"/>
       <use xlink:href="#DejaVuSans-65" transform="translate(747.746094 0)"/>
       <use xlink:href="#DejaVuSans-72" transform="translate(809.269531 0)"/>
       <use xlink:href="#DejaVuSans-27" transform="translate(850.382812 0)"/>
       <use xlink:href="#DejaVuSans-73" transform="translate(877.873047 0)"/>
       <use xlink:href="#DejaVuSans-20" transform="translate(929.972656 0)"/>
       <use xlink:href="#DejaVuSans-44" transform="translate(961.759766 0)"/>
       <use xlink:href="#DejaVuSans-69" transform="translate(1038.761719 0)"/>
       <use xlink:href="#DejaVuSans-73" transform="translate(1066.544922 0)"/>
       <use xlink:href="#DejaVuSans-65" transform="translate(1118.644531 0)"/>
       <use xlink:href="#DejaVuSans-61" transform="translate(1180.167969 0)"/>
       <use xlink:href="#DejaVuSans-73" transform="translate(1241.447266 0)"/>
       <use xlink:href="#DejaVuSans-65" transform="translate(1293.546875 0)"/>
      </g>
     </g>
    </g>
    <g id="ytick_7">
     <g id="line2d_12">
      <g>
       <use xlink:href="#m0d89ab9840" x="173.671562" y="190.157743" style="stroke: #000000; stroke-width: 0.8"/>
      </g>
     </g>
     <g id="text_13">
      <!-- Rowen - Alzheimer's Disease -->
      <g transform="translate(22.81375 193.956962) scale(0.1 -0.1)">
       <use xlink:href="#DejaVuSans-52"/>
       <use xlink:href="#DejaVuSans-6f" transform="translate(64.982422 0)"/>
       <use xlink:href="#DejaVuSans-77" transform="translate(126.164062 0)"/>
       <use xlink:href="#DejaVuSans-65" transform="translate(207.951172 0)"/>
       <use xlink:href="#DejaVuSans-6e" transform="translate(269.474609 0)"/>
       <use xlink:href="#DejaVuSans-20" transform="translate(332.853516 0)"/>
       <use xlink:href="#DejaVuSans-2d" transform="translate(364.640625 0)"/>
       <use xlink:href="#DejaVuSans-20" transform="translate(400.724609 0)"/>
       <use xlink:href="#DejaVuSans-41" transform="translate(432.511719 0)"/>
       <use xlink:href="#DejaVuSans-6c" transform="translate(500.919922 0)"/>
       <use xlink:href="#DejaVuSans-7a" transform="translate(528.703125 0)"/>
       <use xlink:href="#DejaVuSans-68" transform="translate(581.193359 0)"/>
       <use xlink:href="#DejaVuSans-65" transform="translate(644.572266 0)"/>
       <use xlink:href="#DejaVuSans-69" transform="translate(706.095703 0)"/>
       <use xlink:href="#DejaVuSans-6d" transform="translate(733.878906 0)"/>
       <use xlink:href="#DejaVuSans-65" transform="translate(831.291016 0)"/>
       <use xlink:href="#DejaVuSans-72" transform="translate(892.814453 0)"/>
       <use xlink:href="#DejaVuSans-27" transform="translate(933.927734 0)"/>
       <use xlink:href="#DejaVuSans-73" transform="translate(961.417969 0)"/>
       <use xlink:href="#DejaVuSans-20" transform="translate(1013.517578 0)"/>
       <use xlink:href="#DejaVuSans-44" transform="translate(1045.304688 0)"/>
       <use xlink:href="#DejaVuSans-69" transform="translate(1122.306641 0)"/>
       <use xlink:href="#DejaVuSans-73" transform="translate(1150.089844 0)"/>
       <use xlink:href="#DejaVuSans-65" transform="translate(1202.189453 0)"/>
       <use xlink:href="#DejaVuSans-61" transform="translate(1263.712891 0)"/>
       <use xlink:href="#DejaVuSans-73" transform="translate(1324.992188 0)"/>
       <use xlink:href="#DejaVuSans-65" transform="translate(1377.091797 0)"/>
      </g>
     </g>
    </g>
    <g id="ytick_8">
     <g id="line2d_13">
      <g>
       <use xlink:href="#m0d89ab9840" x="173.671562" y="151.460155" style="stroke: #000000; stroke-width: 0.8"/>
      </g>
     </g>
     <g id="text_14">
      <!-- Rowen - CAD -->
      <g transform="translate(101.898125 155.259373) scale(0.1 -0.1)">
       <use xlink:href="#DejaVuSans-52"/>
       <use xlink:href="#DejaVuSans-6f" transform="translate(64.982422 0)"/>
       <use xlink:href="#DejaVuSans-77" transform="translate(126.164062 0)"/>
       <use xlink:href="#DejaVuSans-65" transform="translate(207.951172 0)"/>
       <use xlink:href="#DejaVuSans-6e" transform="translate(269.474609 0)"/>
       <use xlink:href="#DejaVuSans-20" transform="translate(332.853516 0)"/>
       <use xlink:href="#DejaVuSans-2d" transform="translate(364.640625 0)"/>
       <use xlink:href="#DejaVuSans-20" transform="translate(400.724609 0)"/>
       <use xlink:href="#DejaVuSans-43" transform="translate(432.511719 0)"/>
       <use xlink:href="#DejaVuSans-41" transform="translate(502.335938 0)"/>
       <use xlink:href="#DejaVuSans-44" transform="translate(570.744141 0)"/>
      </g>
     </g>
    </g>
    <g id="ytick_9">
     <g id="line2d_14">
      <g>
       <use xlink:href="#m0d89ab9840" x="173.671562" y="112.762567" style="stroke: #000000; stroke-width: 0.8"/>
      </g>
     </g>
     <g id="text_15">
      <!-- Rowen - BMI -->
      <g transform="translate(104.9825 116.561785) scale(0.1 -0.1)">
       <defs>
        <path id="DejaVuSans-42" d="M 1259 2228 
L 1259 519 
L 2272 519 
Q 2781 519 3026 730 
Q 3272 941 3272 1375 
Q 3272 1813 3026 2020 
Q 2781 2228 2272 2228 
L 1259 2228 
z
M 1259 4147 
L 1259 2741 
L 2194 2741 
Q 2656 2741 2882 2914 
Q 3109 3088 3109 3444 
Q 3109 3797 2882 3972 
Q 2656 4147 2194 4147 
L 1259 4147 
z
M 628 4666 
L 2241 4666 
Q 2963 4666 3353 4366 
Q 3744 4066 3744 3513 
Q 3744 3084 3544 2831 
Q 3344 2578 2956 2516 
Q 3422 2416 3680 2098 
Q 3938 1781 3938 1306 
Q 3938 681 3513 340 
Q 3088 0 2303 0 
L 628 0 
L 628 4666 
z
" transform="scale(0.015625)"/>
        <path id="DejaVuSans-4d" d="M 628 4666 
L 1569 4666 
L 2759 1491 
L 3956 4666 
L 4897 4666 
L 4897 0 
L 4281 0 
L 4281 4097 
L 3078 897 
L 2444 897 
L 1241 4097 
L 1241 0 
L 628 0 
L 628 4666 
z
" transform="scale(0.015625)"/>
        <path id="DejaVuSans-49" d="M 628 4666 
L 1259 4666 
L 1259 0 
L 628 0 
L 628 4666 
z
" transform="scale(0.015625)"/>
       </defs>
       <use xlink:href="#DejaVuSans-52"/>
       <use xlink:href="#DejaVuSans-6f" transform="translate(64.982422 0)"/>
       <use xlink:href="#DejaVuSans-77" transform="translate(126.164062 0)"/>
       <use xlink:href="#DejaVuSans-65" transform="translate(207.951172 0)"/>
       <use xlink:href="#DejaVuSans-6e" transform="translate(269.474609 0)"/>
       <use xlink:href="#DejaVuSans-20" transform="translate(332.853516 0)"/>
       <use xlink:href="#DejaVuSans-2d" transform="translate(364.640625 0)"/>
       <use xlink:href="#DejaVuSans-20" transform="translate(400.724609 0)"/>
       <use xlink:href="#DejaVuSans-42" transform="translate(432.511719 0)"/>
       <use xlink:href="#DejaVuSans-4d" transform="translate(501.115234 0)"/>
       <use xlink:href="#DejaVuSans-49" transform="translate(587.394531 0)"/>
      </g>
     </g>
    </g>
    <g id="ytick_10">
     <g id="line2d_15">
      <g>
       <use xlink:href="#m0d89ab9840" x="173.671562" y="74.064978" style="stroke: #000000; stroke-width: 0.8"/>
      </g>
     </g>
     <g id="text_16">
      <!-- Trent - BMI -->
      <g transform="translate(113.33875 77.864197) scale(0.1 -0.1)">
       <use xlink:href="#DejaVuSans-54"/>
       <use xlink:href="#DejaVuSans-72" transform="translate(46.333984 0)"/>
       <use xlink:href="#DejaVuSans-65" transform="translate(85.197266 0)"/>
       <use xlink:href="#DejaVuSans-6e" transform="translate(146.720703 0)"/>
       <use xlink:href="#DejaVuSans-74" transform="translate(210.099609 0)"/>
       <use xlink:href="#DejaVuSans-20" transform="translate(249.308594 0)"/>
       <use xlink:href="#DejaVuSans-2d" transform="translate(281.095703 0)"/>
       <use xlink:href="#DejaVuSans-20" transform="translate(317.179688 0)"/>
       <use xlink:href="#DejaVuSans-42" transform="translate(348.966797 0)"/>
       <use xlink:href="#DejaVuSans-4d" transform="translate(417.570312 0)"/>
       <use xlink:href="#DejaVuSans-49" transform="translate(503.849609 0)"/>
      </g>
     </g>
    </g>
    <g id="text_17">
     <!-- Sample - Trait -->
     <g transform="translate(16.318125 295.280687) rotate(-90) scale(0.12 -0.12)">
      <defs>
       <path id="DejaVuSans-Bold-53" d="M 3834 4519 
L 3834 3531 
Q 3450 3703 3084 3790 
Q 2719 3878 2394 3878 
Q 1963 3878 1756 3759 
Q 1550 3641 1550 3391 
Q 1550 3203 1689 3098 
Q 1828 2994 2194 2919 
L 2706 2816 
Q 3484 2659 3812 2340 
Q 4141 2022 4141 1434 
Q 4141 663 3683 286 
Q 3225 -91 2284 -91 
Q 1841 -91 1394 -6 
Q 947 78 500 244 
L 500 1259 
Q 947 1022 1364 901 
Q 1781 781 2169 781 
Q 2563 781 2772 912 
Q 2981 1044 2981 1288 
Q 2981 1506 2839 1625 
Q 2697 1744 2272 1838 
L 1806 1941 
Q 1106 2091 782 2419 
Q 459 2747 459 3303 
Q 459 4000 909 4375 
Q 1359 4750 2203 4750 
Q 2588 4750 2994 4692 
Q 3400 4634 3834 4519 
z
" transform="scale(0.015625)"/>
       <path id="DejaVuSans-Bold-70" d="M 1656 506 
L 1656 -1331 
L 538 -1331 
L 538 3500 
L 1656 3500 
L 1656 2988 
Q 1888 3294 2169 3439 
Q 2450 3584 2816 3584 
Q 3463 3584 3878 3070 
Q 4294 2556 4294 1747 
Q 4294 938 3878 423 
Q 3463 -91 2816 -91 
Q 2450 -91 2169 54 
Q 1888 200 1656 506 
z
M 2400 2772 
Q 2041 2772 1848 2508 
Q 1656 2244 1656 1747 
Q 1656 1250 1848 986 
Q 2041 722 2400 722 
Q 2759 722 2948 984 
Q 3138 1247 3138 1747 
Q 3138 2247 2948 2509 
Q 2759 2772 2400 2772 
z
" transform="scale(0.015625)"/>
       <path id="DejaVuSans-Bold-6c" d="M 538 4863 
L 1656 4863 
L 1656 0 
L 538 0 
L 538 4863 
z
" transform="scale(0.015625)"/>
       <path id="DejaVuSans-Bold-2d" d="M 347 2297 
L 2309 2297 
L 2309 1388 
L 347 1388 
L 347 2297 
z
" transform="scale(0.015625)"/>
       <path id="DejaVuSans-Bold-54" d="M 31 4666 
L 4331 4666 
L 4331 3756 
L 2784 3756 
L 2784 0 
L 1581 0 
L 1581 3756 
L 31 3756 
L 31 4666 
z
" transform="scale(0.015625)"/>
       <path id="DejaVuSans-Bold-74" d="M 1759 4494 
L 1759 3500 
L 2913 3500 
L 2913 2700 
L 1759 2700 
L 1759 1216 
Q 1759 972 1856 886 
Q 1953 800 2241 800 
L 2816 800 
L 2816 0 
L 1856 0 
Q 1194 0 917 276 
Q 641 553 641 1216 
L 641 2700 
L 84 2700 
L 84 3500 
L 641 3500 
L 641 4494 
L 1759 4494 
z
" transform="scale(0.015625)"/>
      </defs>
      <use xlink:href="#DejaVuSans-Bold-53"/>
      <use xlink:href="#DejaVuSans-Bold-61" transform="translate(72.021484 0)"/>
      <use xlink:href="#DejaVuSans-Bold-6d" transform="translate(139.501953 0)"/>
      <use xlink:href="#DejaVuSans-Bold-70" transform="translate(243.701172 0)"/>
      <use xlink:href="#DejaVuSans-Bold-6c" transform="translate(315.283203 0)"/>
      <use xlink:href="#DejaVuSans-Bold-65" transform="translate(349.560547 0)"/>
      <use xlink:href="#DejaVuSans-Bold-20" transform="translate(417.382812 0)"/>
      <use xlink:href="#DejaVuSans-Bold-2d" transform="translate(452.197266 0)"/>
      <use xlink:href="#DejaVuSans-Bold-20" transform="translate(493.701172 0)"/>
      <use xlink:href="#DejaVuSans-Bold-54" transform="translate(528.515625 0)"/>
      <use xlink:href="#DejaVuSans-Bold-72" transform="translate(585.728516 0)"/>
      <use xlink:href="#DejaVuSans-Bold-61" transform="translate(635.044922 0)"/>
      <use xlink:href="#DejaVuSans-Bold-69" transform="translate(702.525391 0)"/>
      <use xlink:href="#DejaVuSans-Bold-74" transform="translate(736.802734 0)"/>
     </g>
    </g>
   </g>
   <g id="line2d_16">
    <path d="M 771.134988 456.784125 
L 771.134988 39.624125 
" clip-path="url(#p910c6671ec)" style="fill: none; stroke: #000000; stroke-width: 1.5; stroke-linecap: square"/>
   </g>
   <g id="line2d_17">
    <path d="M 784.413088 456.784125 
L 784.413088 39.624125 
" clip-path="url(#p910c6671ec)" style="fill: none; stroke-dasharray: 3.7,1.6; stroke-dashoffset: 0; stroke: #808080; stroke-opacity: 0.5"/>
   </g>
   <g id="line2d_18">
    <path d="M 757.856888 456.784125 
L 757.856888 39.624125 
" clip-path="url(#p910c6671ec)" style="fill: none; stroke-dasharray: 3.7,1.6; stroke-dashoffset: 0; stroke: #808080; stroke-opacity: 0.5"/>
   </g>
   <g id="line2d_19">
    <path d="M 773.790608 456.784125 
L 773.790608 39.624125 
" clip-path="url(#p910c6671ec)" style="fill: none; stroke-dasharray: 0.5,0.825; stroke-dashoffset: 0; stroke: #808080; stroke-opacity: 0.5; stroke-width: 0.5"/>
   </g>
   <g id="line2d_20">
    <path d="M 768.479368 456.784125 
L 768.479368 39.624125 
" clip-path="url(#p910c6671ec)" style="fill: none; stroke-dasharray: 0.5,0.825; stroke-dashoffset: 0; stroke: #808080; stroke-opacity: 0.5; stroke-width: 0.5"/>
   </g>
   <g id="patch_13">
    <path d="M 173.671562 456.784125 
L 173.671562 39.624125 
" style="fill: none; stroke: #000000; stroke-width: 0.8; stroke-linejoin: miter; stroke-linecap: square"/>
   </g>
   <g id="patch_14">
    <path d="M 832.438636 456.784125 
L 832.438636 39.624125 
" style="fill: none; stroke: #000000; stroke-width: 0.8; stroke-linejoin: miter; stroke-linecap: square"/>
   </g>
   <g id="patch_15">
    <path d="M 173.671563 456.784125 
L 832.438636 456.784125 
" style="fill: none; stroke: #000000; stroke-width: 0.8; stroke-linejoin: miter; stroke-linecap: square"/>
   </g>
   <g id="patch_16">
    <path d="M 173.671563 39.624125 
L 832.438636 39.624125 
" style="fill: none; stroke: #000000; stroke-width: 0.8; stroke-linejoin: miter; stroke-linecap: square"/>
   </g>
   <g id="text_18">
    <!-- -2137.1% -->
    <g transform="translate(153.477869 424.826709) scale(0.09 -0.09)">
     <defs>
      <path id="DejaVuSans-Bold-32" d="M 1844 884 
L 3897 884 
L 3897 0 
L 506 0 
L 506 884 
L 2209 2388 
Q 2438 2594 2547 2791 
Q 2656 2988 2656 3200 
Q 2656 3528 2436 3728 
Q 2216 3928 1850 3928 
Q 1569 3928 1234 3808 
Q 900 3688 519 3450 
L 519 4475 
Q 925 4609 1322 4679 
Q 1719 4750 2100 4750 
Q 2938 4750 3402 4381 
Q 3866 4013 3866 3353 
Q 3866 2972 3669 2642 
Q 3472 2313 2841 1759 
L 1844 884 
z
" transform="scale(0.015625)"/>
      <path id="DejaVuSans-Bold-31" d="M 750 831 
L 1813 831 
L 1813 3847 
L 722 3622 
L 722 4441 
L 1806 4666 
L 2950 4666 
L 2950 831 
L 4013 831 
L 4013 0 
L 750 0 
L 750 831 
z
" transform="scale(0.015625)"/>
      <path id="DejaVuSans-Bold-33" d="M 2981 2516 
Q 3453 2394 3698 2092 
Q 3944 1791 3944 1325 
Q 3944 631 3412 270 
Q 2881 -91 1863 -91 
Q 1503 -91 1142 -33 
Q 781 25 428 141 
L 428 1069 
Q 766 900 1098 814 
Q 1431 728 1753 728 
Q 2231 728 2486 893 
Q 2741 1059 2741 1369 
Q 2741 1688 2480 1852 
Q 2219 2016 1709 2016 
L 1228 2016 
L 1228 2791 
L 1734 2791 
Q 2188 2791 2409 2933 
Q 2631 3075 2631 3366 
Q 2631 3634 2415 3781 
Q 2200 3928 1806 3928 
Q 1516 3928 1219 3862 
Q 922 3797 628 3669 
L 628 4550 
Q 984 4650 1334 4700 
Q 1684 4750 2022 4750 
Q 2931 4750 3382 4451 
Q 3834 4153 3834 3553 
Q 3834 3144 3618 2883 
Q 3403 2622 2981 2516 
z
" transform="scale(0.015625)"/>
      <path id="DejaVuSans-Bold-37" d="M 428 4666 
L 3944 4666 
L 3944 3988 
L 2125 0 
L 953 0 
L 2675 3781 
L 428 3781 
L 428 4666 
z
" transform="scale(0.015625)"/>
      <path id="DejaVuSans-Bold-2e" d="M 653 1209 
L 1778 1209 
L 1778 0 
L 653 0 
L 653 1209 
z
" transform="scale(0.015625)"/>
     </defs>
     <use xlink:href="#DejaVuSans-Bold-2d"/>
     <use xlink:href="#DejaVuSans-Bold-32" transform="translate(41.503906 0)"/>
     <use xlink:href="#DejaVuSans-Bold-31" transform="translate(111.083984 0)"/>
     <use xlink:href="#DejaVuSans-Bold-33" transform="translate(180.664062 0)"/>
     <use xlink:href="#DejaVuSans-Bold-37" transform="translate(250.244141 0)"/>
     <use xlink:href="#DejaVuSans-Bold-2e" transform="translate(319.824219 0)"/>
     <use xlink:href="#DejaVuSans-Bold-31" transform="translate(357.8125 0)"/>
     <use xlink:href="#DejaVuSans-Bold-25" transform="translate(427.392578 0)"/>
    </g>
   </g>
   <g id="text_19">
    <!-- -435.3% -->
    <g transform="translate(611.66102 386.129121) scale(0.09 -0.09)">
     <defs>
      <path id="DejaVuSans-Bold-34" d="M 2356 3675 
L 1038 1722 
L 2356 1722 
L 2356 3675 
z
M 2156 4666 
L 3494 4666 
L 3494 1722 
L 4159 1722 
L 4159 850 
L 3494 850 
L 3494 0 
L 2356 0 
L 2356 850 
L 288 850 
L 288 1881 
L 2156 4666 
z
" transform="scale(0.015625)"/>
      <path id="DejaVuSans-Bold-35" d="M 678 4666 
L 3669 4666 
L 3669 3781 
L 1638 3781 
L 1638 3059 
Q 1775 3097 1914 3117 
Q 2053 3138 2203 3138 
Q 3056 3138 3531 2711 
Q 4006 2284 4006 1522 
Q 4006 766 3489 337 
Q 2972 -91 2053 -91 
Q 1656 -91 1267 -14 
Q 878 63 494 219 
L 494 1166 
Q 875 947 1217 837 
Q 1559 728 1863 728 
Q 2300 728 2551 942 
Q 2803 1156 2803 1522 
Q 2803 1891 2551 2103 
Q 2300 2316 1863 2316 
Q 1603 2316 1309 2248 
Q 1016 2181 678 2041 
L 678 4666 
z
" transform="scale(0.015625)"/>
     </defs>
     <use xlink:href="#DejaVuSans-Bold-2d"/>
     <use xlink:href="#DejaVuSans-Bold-34" transform="translate(41.503906 0)"/>
     <use xlink:href="#DejaVuSans-Bold-33" transform="translate(111.083984 0)"/>
     <use xlink:href="#DejaVuSans-Bold-35" transform="translate(180.664062 0)"/>
     <use xlink:href="#DejaVuSans-Bold-2e" transform="translate(250.244141 0)"/>
     <use xlink:href="#DejaVuSans-Bold-33" transform="translate(288.232422 0)"/>
     <use xlink:href="#DejaVuSans-Bold-25" transform="translate(357.8125 0)"/>
    </g>
   </g>
   <g id="text_20">
    <!-- -24.5% -->
    <g transform="translate(727.018535 347.431533) scale(0.09 -0.09)">
     <use xlink:href="#DejaVuSans-Bold-2d"/>
     <use xlink:href="#DejaVuSans-Bold-32" transform="translate(41.503906 0)"/>
     <use xlink:href="#DejaVuSans-Bold-34" transform="translate(111.083984 0)"/>
     <use xlink:href="#DejaVuSans-Bold-2e" transform="translate(180.664062 0)"/>
     <use xlink:href="#DejaVuSans-Bold-35" transform="translate(218.652344 0)"/>
     <use xlink:href="#DejaVuSans-Bold-25" transform="translate(288.232422 0)"/>
    </g>
   </g>
   <g id="text_21">
    <!-- -10.3% -->
    <g transform="translate(730.794836 308.733945) scale(0.09 -0.09)">
     <defs>
      <path id="DejaVuSans-Bold-30" d="M 2944 2338 
Q 2944 3213 2780 3570 
Q 2616 3928 2228 3928 
Q 1841 3928 1675 3570 
Q 1509 3213 1509 2338 
Q 1509 1453 1675 1090 
Q 1841 728 2228 728 
Q 2613 728 2778 1090 
Q 2944 1453 2944 2338 
z
M 4147 2328 
Q 4147 1169 3647 539 
Q 3147 -91 2228 -91 
Q 1306 -91 806 539 
Q 306 1169 306 2328 
Q 306 3491 806 4120 
Q 1306 4750 2228 4750 
Q 3147 4750 3647 4120 
Q 4147 3491 4147 2328 
z
" transform="scale(0.015625)"/>
     </defs>
     <use xlink:href="#DejaVuSans-Bold-2d"/>
     <use xlink:href="#DejaVuSans-Bold-31" transform="translate(41.503906 0)"/>
     <use xlink:href="#DejaVuSans-Bold-30" transform="translate(111.083984 0)"/>
     <use xlink:href="#DejaVuSans-Bold-2e" transform="translate(180.664062 0)"/>
     <use xlink:href="#DejaVuSans-Bold-33" transform="translate(218.652344 0)"/>
     <use xlink:href="#DejaVuSans-Bold-25" transform="translate(288.232422 0)"/>
    </g>
   </g>
   <g id="text_22">
    <!-- -4.1% -->
    <g transform="translate(738.699393 270.036357) scale(0.09 -0.09)">
     <use xlink:href="#DejaVuSans-Bold-2d"/>
     <use xlink:href="#DejaVuSans-Bold-34" transform="translate(41.503906 0)"/>
     <use xlink:href="#DejaVuSans-Bold-2e" transform="translate(111.083984 0)"/>
     <use xlink:href="#DejaVuSans-Bold-31" transform="translate(149.072266 0)"/>
     <use xlink:href="#DejaVuSans-Bold-25" transform="translate(218.652344 0)"/>
    </g>
   </g>
   <g id="text_23">
    <!-- -3.3% -->
    <g transform="translate(738.907911 231.338768) scale(0.09 -0.09)">
     <use xlink:href="#DejaVuSans-Bold-2d"/>
     <use xlink:href="#DejaVuSans-Bold-33" transform="translate(41.503906 0)"/>
     <use xlink:href="#DejaVuSans-Bold-2e" transform="translate(111.083984 0)"/>
     <use xlink:href="#DejaVuSans-Bold-33" transform="translate(149.072266 0)"/>
     <use xlink:href="#DejaVuSans-Bold-25" transform="translate(218.652344 0)"/>
    </g>
   </g>
   <g id="text_24">
    <!-- 0.0% -->
    <g transform="translate(743.518431 192.64118) scale(0.09 -0.09)">
     <use xlink:href="#DejaVuSans-Bold-30"/>
     <use xlink:href="#DejaVuSans-Bold-2e" transform="translate(69.580078 0)"/>
     <use xlink:href="#DejaVuSans-Bold-30" transform="translate(107.568359 0)"/>
     <use xlink:href="#DejaVuSans-Bold-25" transform="translate(177.148438 0)"/>
    </g>
   </g>
   <g id="text_25">
    <!-- +2.5% -->
    <g transform="translate(774.444062 153.943592) scale(0.09 -0.09)">
     <defs>
      <path id="DejaVuSans-Bold-2b" d="M 3053 4013 
L 3053 2375 
L 4684 2375 
L 4684 1638 
L 3053 1638 
L 3053 0 
L 2309 0 
L 2309 1638 
L 678 1638 
L 678 2375 
L 2309 2375 
L 2309 4013 
L 3053 4013 
z
" transform="scale(0.015625)"/>
     </defs>
     <use xlink:href="#DejaVuSans-Bold-2b"/>
     <use xlink:href="#DejaVuSans-Bold-32" transform="translate(83.789062 0)"/>
     <use xlink:href="#DejaVuSans-Bold-2e" transform="translate(153.369141 0)"/>
     <use xlink:href="#DejaVuSans-Bold-35" transform="translate(191.357422 0)"/>
     <use xlink:href="#DejaVuSans-Bold-25" transform="translate(260.9375 0)"/>
    </g>
   </g>
   <g id="text_26">
    <!-- +116.5% -->
    <g transform="translate(804.732773 115.246004) scale(0.09 -0.09)">
     <defs>
      <path id="DejaVuSans-Bold-36" d="M 2316 2303 
Q 2000 2303 1842 2098 
Q 1684 1894 1684 1484 
Q 1684 1075 1842 870 
Q 2000 666 2316 666 
Q 2634 666 2792 870 
Q 2950 1075 2950 1484 
Q 2950 1894 2792 2098 
Q 2634 2303 2316 2303 
z
M 3803 4544 
L 3803 3681 
Q 3506 3822 3243 3889 
Q 2981 3956 2731 3956 
Q 2194 3956 1894 3657 
Q 1594 3359 1544 2772 
Q 1750 2925 1990 3001 
Q 2231 3078 2516 3078 
Q 3231 3078 3670 2659 
Q 4109 2241 4109 1563 
Q 4109 813 3618 361 
Q 3128 -91 2303 -91 
Q 1394 -91 895 523 
Q 397 1138 397 2266 
Q 397 3422 980 4083 
Q 1563 4744 2578 4744 
Q 2900 4744 3203 4694 
Q 3506 4644 3803 4544 
z
" transform="scale(0.015625)"/>
     </defs>
     <use xlink:href="#DejaVuSans-Bold-2b"/>
     <use xlink:href="#DejaVuSans-Bold-31" transform="translate(83.789062 0)"/>
     <use xlink:href="#DejaVuSans-Bold-31" transform="translate(153.369141 0)"/>
     <use xlink:href="#DejaVuSans-Bold-36" transform="translate(222.949219 0)"/>
     <use xlink:href="#DejaVuSans-Bold-2e" transform="translate(292.529297 0)"/>
     <use xlink:href="#DejaVuSans-Bold-35" transform="translate(330.517578 0)"/>
     <use xlink:href="#DejaVuSans-Bold-25" transform="translate(400.097656 0)"/>
    </g>
   </g>
   <g id="text_27">
    <!-- +118.1% -->
    <g transform="translate(805.150299 76.548416) scale(0.09 -0.09)">
     <defs>
      <path id="DejaVuSans-Bold-38" d="M 2228 2088 
Q 1891 2088 1709 1903 
Q 1528 1719 1528 1375 
Q 1528 1031 1709 848 
Q 1891 666 2228 666 
Q 2563 666 2741 848 
Q 2919 1031 2919 1375 
Q 2919 1722 2741 1905 
Q 2563 2088 2228 2088 
z
M 1350 2484 
Q 925 2613 709 2878 
Q 494 3144 494 3541 
Q 494 4131 934 4440 
Q 1375 4750 2228 4750 
Q 3075 4750 3515 4442 
Q 3956 4134 3956 3541 
Q 3956 3144 3739 2878 
Q 3522 2613 3097 2484 
Q 3572 2353 3814 2058 
Q 4056 1763 4056 1313 
Q 4056 619 3595 264 
Q 3134 -91 2228 -91 
Q 1319 -91 855 264 
Q 391 619 391 1313 
Q 391 1763 633 2058 
Q 875 2353 1350 2484 
z
M 1631 3419 
Q 1631 3141 1786 2991 
Q 1941 2841 2228 2841 
Q 2509 2841 2662 2991 
Q 2816 3141 2816 3419 
Q 2816 3697 2662 3845 
Q 2509 3994 2228 3994 
Q 1941 3994 1786 3844 
Q 1631 3694 1631 3419 
z
" transform="scale(0.015625)"/>
     </defs>
     <use xlink:href="#DejaVuSans-Bold-2b"/>
     <use xlink:href="#DejaVuSans-Bold-31" transform="translate(83.789062 0)"/>
     <use xlink:href="#DejaVuSans-Bold-31" transform="translate(153.369141 0)"/>
     <use xlink:href="#DejaVuSans-Bold-38" transform="translate(222.949219 0)"/>
     <use xlink:href="#DejaVuSans-Bold-2e" transform="translate(292.529297 0)"/>
     <use xlink:href="#DejaVuSans-Bold-31" transform="translate(330.517578 0)"/>
     <use xlink:href="#DejaVuSans-Bold-25" transform="translate(400.097656 0)"/>
    </g>
   </g>
   <g id="text_28">
    <!-- Systematic Bias in VCF-Only PRS Calculations -->
    <g transform="translate(323.382599 17.837812) scale(0.14 -0.14)">
     <defs>
      <path id="DejaVuSans-Bold-56" d="M 31 4666 
L 1241 4666 
L 2478 1222 
L 3713 4666 
L 4922 4666 
L 3194 0 
L 1759 0 
L 31 4666 
z
" transform="scale(0.015625)"/>
      <path id="DejaVuSans-Bold-43" d="M 4288 256 
Q 3956 84 3597 -3 
Q 3238 -91 2847 -91 
Q 1681 -91 1000 561 
Q 319 1213 319 2328 
Q 319 3447 1000 4098 
Q 1681 4750 2847 4750 
Q 3238 4750 3597 4662 
Q 3956 4575 4288 4403 
L 4288 3438 
Q 3953 3666 3628 3772 
Q 3303 3878 2944 3878 
Q 2300 3878 1931 3465 
Q 1563 3053 1563 2328 
Q 1563 1606 1931 1193 
Q 2300 781 2944 781 
Q 3303 781 3628 887 
Q 3953 994 4288 1222 
L 4288 256 
z
" transform="scale(0.015625)"/>
      <path id="DejaVuSans-Bold-46" d="M 588 4666 
L 3834 4666 
L 3834 3756 
L 1791 3756 
L 1791 2888 
L 3713 2888 
L 3713 1978 
L 1791 1978 
L 1791 0 
L 588 0 
L 588 4666 
z
" transform="scale(0.015625)"/>
      <path id="DejaVuSans-Bold-4f" d="M 2719 3878 
Q 2169 3878 1866 3472 
Q 1563 3066 1563 2328 
Q 1563 1594 1866 1187 
Q 2169 781 2719 781 
Q 3272 781 3575 1187 
Q 3878 1594 3878 2328 
Q 3878 3066 3575 3472 
Q 3272 3878 2719 3878 
z
M 2719 4750 
Q 3844 4750 4481 4106 
Q 5119 3463 5119 2328 
Q 5119 1197 4481 553 
Q 3844 -91 2719 -91 
Q 1597 -91 958 553 
Q 319 1197 319 2328 
Q 319 3463 958 4106 
Q 1597 4750 2719 4750 
z
" transform="scale(0.015625)"/>
      <path id="DejaVuSans-Bold-50" d="M 588 4666 
L 2584 4666 
Q 3475 4666 3951 4270 
Q 4428 3875 4428 3144 
Q 4428 2409 3951 2014 
Q 3475 1619 2584 1619 
L 1791 1619 
L 1791 0 
L 588 0 
L 588 4666 
z
M 1791 3794 
L 1791 2491 
L 2456 2491 
Q 2806 2491 2997 2661 
Q 3188 2831 3188 3144 
Q 3188 3456 2997 3625 
Q 2806 3794 2456 3794 
L 1791 3794 
z
" transform="scale(0.015625)"/>
     </defs>
     <use xlink:href="#DejaVuSans-Bold-53"/>
     <use xlink:href="#DejaVuSans-Bold-79" transform="translate(72.021484 0)"/>
     <use xlink:href="#DejaVuSans-Bold-73" transform="translate(137.207031 0)"/>
     <use xlink:href="#DejaVuSans-Bold-74" transform="translate(196.728516 0)"/>
     <use xlink:href="#DejaVuSans-Bold-65" transform="translate(244.53125 0)"/>
     <use xlink:href="#DejaVuSans-Bold-6d" transform="translate(312.353516 0)"/>
     <use xlink:href="#DejaVuSans-Bold-61" transform="translate(416.552734 0)"/>
     <use xlink:href="#DejaVuSans-Bold-74" transform="translate(484.033203 0)"/>
     <use xlink:href="#DejaVuSans-Bold-69" transform="translate(531.835938 0)"/>
     <use xlink:href="#DejaVuSans-Bold-63" transform="translate(566.113281 0)"/>
     <use xlink:href="#DejaVuSans-Bold-20" transform="translate(625.390625 0)"/>
     <use xlink:href="#DejaVuSans-Bold-42" transform="translate(660.205078 0)"/>
     <use xlink:href="#DejaVuSans-Bold-69" transform="translate(736.425781 0)"/>
     <use xlink:href="#DejaVuSans-Bold-61" transform="translate(770.703125 0)"/>
     <use xlink:href="#DejaVuSans-Bold-73" transform="translate(838.183594 0)"/>
     <use xlink:href="#DejaVuSans-Bold-20" transform="translate(897.705078 0)"/>
     <use xlink:href="#DejaVuSans-Bold-69" transform="translate(932.519531 0)"/>
     <use xlink:href="#DejaVuSans-Bold-6e" transform="translate(966.796875 0)"/>
     <use xlink:href="#DejaVuSans-Bold-20" transform="translate(1037.988281 0)"/>
     <use xlink:href="#DejaVuSans-Bold-56" transform="translate(1072.802734 0)"/>
     <use xlink:href="#DejaVuSans-Bold-43" transform="translate(1150.195312 0)"/>
     <use xlink:href="#DejaVuSans-Bold-46" transform="translate(1223.583984 0)"/>
     <use xlink:href="#DejaVuSans-Bold-2d" transform="translate(1288.769531 0)"/>
     <use xlink:href="#DejaVuSans-Bold-4f" transform="translate(1330.273438 0)"/>
     <use xlink:href="#DejaVuSans-Bold-6e" transform="translate(1415.283203 0)"/>
     <use xlink:href="#DejaVuSans-Bold-6c" transform="translate(1486.474609 0)"/>
     <use xlink:href="#DejaVuSans-Bold-79" transform="translate(1520.751953 0)"/>
     <use xlink:href="#DejaVuSans-Bold-20" transform="translate(1585.9375 0)"/>
     <use xlink:href="#DejaVuSans-Bold-50" transform="translate(1620.751953 0)"/>
     <use xlink:href="#DejaVuSans-Bold-52" transform="translate(1694.042969 0)"/>
     <use xlink:href="#DejaVuSans-Bold-53" transform="translate(1771.044922 0)"/>
     <use xlink:href="#DejaVuSans-Bold-20" transform="translate(1843.066406 0)"/>
     <use xlink:href="#DejaVuSans-Bold-43" transform="translate(1877.880859 0)"/>
     <use xlink:href="#DejaVuSans-Bold-61" transform="translate(1951.269531 0)"/>
     <use xlink:href="#DejaVuSans-Bold-6c" transform="translate(2018.75 0)"/>
     <use xlink:href="#DejaVuSans-Bold-63" transform="translate(2053.027344 0)"/>
     <use xlink:href="#DejaVuSans-Bold-75" transform="translate(2112.304688 0)"/>
     <use xlink:href="#DejaVuSans-Bold-6c" transform="translate(2183.496094 0)"/>
     <use xlink:href="#DejaVuSans-Bold-61" transform="translate(2217.773438 0)"/>
     <use xlink:href="#DejaVuSans-Bold-74" transform="translate(2285.253906 0)"/>
     <use xlink:href="#DejaVuSans-Bold-69" transform="translate(2333.056641 0)"/>
     <use xlink:href="#DejaVuSans-Bold-6f" transform="translate(2367.333984 0)"/>
     <use xlink:href="#DejaVuSans-Bold-6e" transform="translate(2436.035156 0)"/>
     <use xlink:href="#DejaVuSans-Bold-73" transform="translate(2507.226562 0)"/>
    </g>
    <!-- (Positive = Underestimate, Negative = Overestimate) -->
    <g transform="translate(290.987912 33.624125) scale(0.14 -0.14)">
     <defs>
      <path id="DejaVuSans-Bold-76" d="M 97 3500 
L 1216 3500 
L 2088 1081 
L 2956 3500 
L 4078 3500 
L 2700 0 
L 1472 0 
L 97 3500 
z
" transform="scale(0.015625)"/>
      <path id="DejaVuSans-Bold-3d" d="M 678 3084 
L 4684 3084 
L 4684 2350 
L 678 2350 
L 678 3084 
z
M 678 1663 
L 4684 1663 
L 4684 922 
L 678 922 
L 678 1663 
z
" transform="scale(0.015625)"/>
      <path id="DejaVuSans-Bold-55" d="M 588 4666 
L 1791 4666 
L 1791 1869 
Q 1791 1291 1980 1042 
Q 2169 794 2597 794 
Q 3028 794 3217 1042 
Q 3406 1291 3406 1869 
L 3406 4666 
L 4609 4666 
L 4609 1869 
Q 4609 878 4112 393 
Q 3616 -91 2597 -91 
Q 1581 -91 1084 393 
Q 588 878 588 1869 
L 588 4666 
z
" transform="scale(0.015625)"/>
      <path id="DejaVuSans-Bold-64" d="M 2919 2988 
L 2919 4863 
L 4044 4863 
L 4044 0 
L 2919 0 
L 2919 506 
Q 2688 197 2409 53 
Q 2131 -91 1766 -91 
Q 1119 -91 703 423 
Q 288 938 288 1747 
Q 288 2556 703 3070 
Q 1119 3584 1766 3584 
Q 2128 3584 2408 3439 
Q 2688 3294 2919 2988 
z
M 2181 722 
Q 2541 722 2730 984 
Q 2919 1247 2919 1747 
Q 2919 2247 2730 2509 
Q 2541 2772 2181 2772 
Q 1825 2772 1636 2509 
Q 1447 2247 1447 1747 
Q 1447 1247 1636 984 
Q 1825 722 2181 722 
z
" transform="scale(0.015625)"/>
      <path id="DejaVuSans-Bold-2c" d="M 653 1209 
L 1778 1209 
L 1778 256 
L 1006 -909 
L 341 -909 
L 653 256 
L 653 1209 
z
" transform="scale(0.015625)"/>
      <path id="DejaVuSans-Bold-4e" d="M 588 4666 
L 1931 4666 
L 3628 1466 
L 3628 4666 
L 4769 4666 
L 4769 0 
L 3425 0 
L 1728 3200 
L 1728 0 
L 588 0 
L 588 4666 
z
" transform="scale(0.015625)"/>
     </defs>
     <use xlink:href="#DejaVuSans-Bold-28"/>
     <use xlink:href="#DejaVuSans-Bold-50" transform="translate(45.703125 0)"/>
     <use xlink:href="#DejaVuSans-Bold-6f" transform="translate(118.994141 0)"/>
     <use xlink:href="#DejaVuSans-Bold-73" transform="translate(187.695312 0)"/>
     <use xlink:href="#DejaVuSans-Bold-69" transform="translate(247.216797 0)"/>
     <use xlink:href="#DejaVuSans-Bold-74" transform="translate(281.494141 0)"/>
     <use xlink:href="#DejaVuSans-Bold-69" transform="translate(329.296875 0)"/>
     <use xlink:href="#DejaVuSans-Bold-76" transform="translate(363.574219 0)"/>
     <use xlink:href="#DejaVuSans-Bold-65" transform="translate(428.759766 0)"/>
     <use xlink:href="#DejaVuSans-Bold-20" transform="translate(496.582031 0)"/>
     <use xlink:href="#DejaVuSans-Bold-3d" transform="translate(531.396484 0)"/>
     <use xlink:href="#DejaVuSans-Bold-20" transform="translate(615.185547 0)"/>
     <use xlink:href="#DejaVuSans-Bold-55" transform="translate(650 0)"/>
     <use xlink:href="#DejaVuSans-Bold-6e" transform="translate(731.201172 0)"/>
     <use xlink:href="#DejaVuSans-Bold-64" transform="translate(802.392578 0)"/>
     <use xlink:href="#DejaVuSans-Bold-65" transform="translate(873.974609 0)"/>
     <use xlink:href="#DejaVuSans-Bold-72" transform="translate(941.796875 0)"/>
     <use xlink:href="#DejaVuSans-Bold-65" transform="translate(991.113281 0)"/>
     <use xlink:href="#DejaVuSans-Bold-73" transform="translate(1058.935547 0)"/>
     <use xlink:href="#DejaVuSans-Bold-74" transform="translate(1118.457031 0)"/>
     <use xlink:href="#DejaVuSans-Bold-69" transform="translate(1166.259766 0)"/>
     <use xlink:href="#DejaVuSans-Bold-6d" transform="translate(1200.537109 0)"/>
     <use xlink:href="#DejaVuSans-Bold-61" transform="translate(1304.736328 0)"/>
     <use xlink:href="#DejaVuSans-Bold-74" transform="translate(1372.216797 0)"/>
     <use xlink:href="#DejaVuSans-Bold-65" transform="translate(1420.019531 0)"/>
     <use xlink:href="#DejaVuSans-Bold-2c" transform="translate(1487.841797 0)"/>
     <use xlink:href="#DejaVuSans-Bold-20" transform="translate(1525.830078 0)"/>
     <use xlink:href="#DejaVuSans-Bold-4e" transform="translate(1560.644531 0)"/>
     <use xlink:href="#DejaVuSans-Bold-65" transform="translate(1644.335938 0)"/>
     <use xlink:href="#DejaVuSans-Bold-67" transform="translate(1712.158203 0)"/>
     <use xlink:href="#DejaVuSans-Bold-61" transform="translate(1783.740234 0)"/>
     <use xlink:href="#DejaVuSans-Bold-74" transform="translate(1851.220703 0)"/>
     <use xlink:href="#DejaVuSans-Bold-69" transform="translate(1899.023438 0)"/>
     <use xlink:href="#DejaVuSans-Bold-76" transform="translate(1933.300781 0)"/>
     <use xlink:href="#DejaVuSans-Bold-65" transform="translate(1998.486328 0)"/>
     <use xlink:href="#DejaVuSans-Bold-20" transform="translate(2066.308594 0)"/>
     <use xlink:href="#DejaVuSans-Bold-3d" transform="translate(2101.123047 0)"/>
     <use xlink:href="#DejaVuSans-Bold-20" transform="translate(2184.912109 0)"/>
     <use xlink:href="#DejaVuSans-Bold-4f" transform="translate(2219.726562 0)"/>
     <use xlink:href="#DejaVuSans-Bold-76" transform="translate(2304.736328 0)"/>
     <use xlink:href="#DejaVuSans-Bold-65" transform="translate(2369.921875 0)"/>
     <use xlink:href="#DejaVuSans-Bold-72" transform="translate(2437.744141 0)"/>
     <use xlink:href="#DejaVuSans-Bold-65" transform="translate(2487.060547 0)"/>
     <use xlink:href="#DejaVuSans-Bold-73" transform="translate(2554.882812 0)"/>
     <use xlink:href="#DejaVuSans-Bold-74" transform="translate(2614.404297 0)"/>
     <use xlink:href="#DejaVuSans-Bold-69" transform="translate(2662.207031 0)"/>
     <use xlink:href="#DejaVuSans-Bold-6d" transform="translate(2696.484375 0)"/>
     <use xlink:href="#DejaVuSans-Bold-61" transform="translate(2800.683594 0)"/>
     <use xlink:href="#DejaVuSans-Bold-74" transform="translate(2868.164062 0)"/>
     <use xlink:href="#DejaVuSans-Bold-65" transform="translate(2915.966797 0)"/>
     <use xlink:href="#DejaVuSans-Bold-29" transform="translate(2983.789062 0)"/>
    </g>
   </g>
   <g id="legend_1">
    <g id="patch_17">
     <path d="M 638.17223 452.284125 
L 826.138636 452.284125 
Q 827.938636 452.284125 827.938636 450.484125 
L 827.938636 398.542875 
Q 827.938636 396.742875 826.138636 396.742875 
L 638.17223 396.742875 
Q 636.37223 396.742875 636.37223 398.542875 
L 636.37223 450.484125 
Q 636.37223 452.284125 638.17223 452.284125 
z
" style="fill: #ffffff; opacity: 0.8; stroke: #cccccc; stroke-linejoin: miter"/>
    </g>
    <g id="patch_18">
     <path d="M 639.97223 407.181469 
L 657.97223 407.181469 
L 657.97223 400.881469 
L 639.97223 400.881469 
z
" style="fill: #d62728; stroke: #000000; stroke-linejoin: miter"/>
    </g>
    <g id="text_29">
     <!-- SEVERE UNDERESTIMATE (&gt;+50%) -->
     <g transform="translate(665.17223 407.181469) scale(0.09 -0.09)">
      <defs>
       <path id="DejaVuSans-53" d="M 3425 4513 
L 3425 3897 
Q 3066 4069 2747 4153 
Q 2428 4238 2131 4238 
Q 1616 4238 1336 4038 
Q 1056 3838 1056 3469 
Q 1056 3159 1242 3001 
Q 1428 2844 1947 2747 
L 2328 2669 
Q 3034 2534 3370 2195 
Q 3706 1856 3706 1288 
Q 3706 609 3251 259 
Q 2797 -91 1919 -91 
Q 1588 -91 1214 -16 
Q 841 59 441 206 
L 441 856 
Q 825 641 1194 531 
Q 1563 422 1919 422 
Q 2459 422 2753 634 
Q 3047 847 3047 1241 
Q 3047 1584 2836 1778 
Q 2625 1972 2144 2069 
L 1759 2144 
Q 1053 2284 737 2584 
Q 422 2884 422 3419 
Q 422 4038 858 4394 
Q 1294 4750 2059 4750 
Q 2388 4750 2728 4690 
Q 3069 4631 3425 4513 
z
" transform="scale(0.015625)"/>
       <path id="DejaVuSans-45" d="M 628 4666 
L 3578 4666 
L 3578 4134 
L 1259 4134 
L 1259 2753 
L 3481 2753 
L 3481 2222 
L 1259 2222 
L 1259 531 
L 3634 531 
L 3634 0 
L 628 0 
L 628 4666 
z
" transform="scale(0.015625)"/>
       <path id="DejaVuSans-56" d="M 1831 0 
L 50 4666 
L 709 4666 
L 2188 738 
L 3669 4666 
L 4325 4666 
L 2547 0 
L 1831 0 
z
" transform="scale(0.015625)"/>
       <path id="DejaVuSans-55" d="M 556 4666 
L 1191 4666 
L 1191 1831 
Q 1191 1081 1462 751 
Q 1734 422 2344 422 
Q 2950 422 3222 751 
Q 3494 1081 3494 1831 
L 3494 4666 
L 4128 4666 
L 4128 1753 
Q 4128 841 3676 375 
Q 3225 -91 2344 -91 
Q 1459 -91 1007 375 
Q 556 841 556 1753 
L 556 4666 
z
" transform="scale(0.015625)"/>
       <path id="DejaVuSans-4e" d="M 628 4666 
L 1478 4666 
L 3547 763 
L 3547 4666 
L 4159 4666 
L 4159 0 
L 3309 0 
L 1241 3903 
L 1241 0 
L 628 0 
L 628 4666 
z
" transform="scale(0.015625)"/>
       <path id="DejaVuSans-28" d="M 1984 4856 
Q 1566 4138 1362 3434 
Q 1159 2731 1159 2009 
Q 1159 1288 1364 580 
Q 1569 -128 1984 -844 
L 1484 -844 
Q 1016 -109 783 600 
Q 550 1309 550 2009 
Q 550 2706 781 3412 
Q 1013 4119 1484 4856 
L 1984 4856 
z
" transform="scale(0.015625)"/>
       <path id="DejaVuSans-3e" d="M 678 3150 
L 678 3719 
L 4684 2266 
L 4684 1747 
L 678 294 
L 678 863 
L 3897 2003 
L 678 3150 
z
" transform="scale(0.015625)"/>
       <path id="DejaVuSans-2b" d="M 2944 4013 
L 2944 2272 
L 4684 2272 
L 4684 1741 
L 2944 1741 
L 2944 0 
L 2419 0 
L 2419 1741 
L 678 1741 
L 678 2272 
L 2419 2272 
L 2419 4013 
L 2944 4013 
z
" transform="scale(0.015625)"/>
       <path id="DejaVuSans-25" d="M 4653 2053 
Q 4381 2053 4226 1822 
Q 4072 1591 4072 1178 
Q 4072 772 4226 539 
Q 4381 306 4653 306 
Q 4919 306 5073 539 
Q 5228 772 5228 1178 
Q 5228 1588 5073 1820 
Q 4919 2053 4653 2053 
z
M 4653 2450 
Q 5147 2450 5437 2106 
Q 5728 1763 5728 1178 
Q 5728 594 5436 251 
Q 5144 -91 4653 -91 
Q 4153 -91 3862 251 
Q 3572 594 3572 1178 
Q 3572 1766 3864 2108 
Q 4156 2450 4653 2450 
z
M 1428 4353 
Q 1159 4353 1004 4120 
Q 850 3888 850 3481 
Q 850 3069 1003 2837 
Q 1156 2606 1428 2606 
Q 1700 2606 1854 2837 
Q 2009 3069 2009 3481 
Q 2009 3884 1853 4118 
Q 1697 4353 1428 4353 
z
M 4250 4750 
L 4750 4750 
L 1831 -91 
L 1331 -91 
L 4250 4750 
z
M 1428 4750 
Q 1922 4750 2215 4408 
Q 2509 4066 2509 3481 
Q 2509 2891 2217 2550 
Q 1925 2209 1428 2209 
Q 931 2209 642 2551 
Q 353 2894 353 3481 
Q 353 4063 643 4406 
Q 934 4750 1428 4750 
z
" transform="scale(0.015625)"/>
       <path id="DejaVuSans-29" d="M 513 4856 
L 1013 4856 
Q 1481 4119 1714 3412 
Q 1947 2706 1947 2009 
Q 1947 1309 1714 600 
Q 1481 -109 1013 -844 
L 513 -844 
Q 928 -128 1133 580 
Q 1338 1288 1338 2009 
Q 1338 2731 1133 3434 
Q 928 4138 513 4856 
z
" transform="scale(0.015625)"/>
      </defs>
      <use xlink:href="#DejaVuSans-53"/>
      <use xlink:href="#DejaVuSans-45" transform="translate(63.476562 0)"/>
      <use xlink:href="#DejaVuSans-56" transform="translate(126.660156 0)"/>
      <use xlink:href="#DejaVuSans-45" transform="translate(195.068359 0)"/>
      <use xlink:href="#DejaVuSans-52" transform="translate(258.251953 0)"/>
      <use xlink:href="#DejaVuSans-45" transform="translate(327.734375 0)"/>
      <use xlink:href="#DejaVuSans-20" transform="translate(390.917969 0)"/>
      <use xlink:href="#DejaVuSans-55" transform="translate(422.705078 0)"/>
      <use xlink:href="#DejaVuSans-4e" transform="translate(495.898438 0)"/>
      <use xlink:href="#DejaVuSans-44" transform="translate(570.703125 0)"/>
      <use xlink:href="#DejaVuSans-45" transform="translate(647.705078 0)"/>
      <use xlink:href="#DejaVuSans-52" transform="translate(710.888672 0)"/>
      <use xlink:href="#DejaVuSans-45" transform="translate(780.371094 0)"/>
      <use xlink:href="#DejaVuSans-53" transform="translate(843.554688 0)"/>
      <use xlink:href="#DejaVuSans-54" transform="translate(907.03125 0)"/>
      <use xlink:href="#DejaVuSans-49" transform="translate(968.115234 0)"/>
      <use xlink:href="#DejaVuSans-4d" transform="translate(997.607422 0)"/>
      <use xlink:href="#DejaVuSans-41" transform="translate(1083.886719 0)"/>
      <use xlink:href="#DejaVuSans-54" transform="translate(1144.544922 0)"/>
      <use xlink:href="#DejaVuSans-45" transform="translate(1205.628906 0)"/>
      <use xlink:href="#DejaVuSans-20" transform="translate(1268.8125 0)"/>
      <use xlink:href="#DejaVuSans-28" transform="translate(1300.599609 0)"/>
      <use xlink:href="#DejaVuSans-3e" transform="translate(1339.613281 0)"/>
      <use xlink:href="#DejaVuSans-2b" transform="translate(1423.402344 0)"/>
      <use xlink:href="#DejaVuSans-35" transform="translate(1507.191406 0)"/>
      <use xlink:href="#DejaVuSans-30" transform="translate(1570.814453 0)"/>
      <use xlink:href="#DejaVuSans-25" transform="translate(1634.4375 0)"/>
      <use xlink:href="#DejaVuSans-29" transform="translate(1729.457031 0)"/>
     </g>
    </g>
    <g id="patch_19">
     <path d="M 639.97223 420.391781 
L 657.97223 420.391781 
L 657.97223 414.091781 
L 639.97223 414.091781 
z
" style="fill: #ff7f0e; stroke: #000000; stroke-linejoin: miter"/>
    </g>
    <g id="text_30">
     <!-- Moderate bias (±10-50%) -->
     <g transform="translate(665.17223 420.391781) scale(0.09 -0.09)">
      <defs>
       <path id="DejaVuSans-64" d="M 2906 2969 
L 2906 4863 
L 3481 4863 
L 3481 0 
L 2906 0 
L 2906 525 
Q 2725 213 2448 61 
Q 2172 -91 1784 -91 
Q 1150 -91 751 415 
Q 353 922 353 1747 
Q 353 2572 751 3078 
Q 1150 3584 1784 3584 
Q 2172 3584 2448 3432 
Q 2725 3281 2906 2969 
z
M 947 1747 
Q 947 1113 1208 752 
Q 1469 391 1925 391 
Q 2381 391 2643 752 
Q 2906 1113 2906 1747 
Q 2906 2381 2643 2742 
Q 2381 3103 1925 3103 
Q 1469 3103 1208 2742 
Q 947 2381 947 1747 
z
" transform="scale(0.015625)"/>
       <path id="DejaVuSans-b1" d="M 2944 4013 
L 2944 2803 
L 4684 2803 
L 4684 2272 
L 2944 2272 
L 2944 1063 
L 2419 1063 
L 2419 2272 
L 678 2272 
L 678 2803 
L 2419 2803 
L 2419 4013 
L 2944 4013 
z
M 678 531 
L 4684 531 
L 4684 0 
L 678 0 
L 678 531 
z
" transform="scale(0.015625)"/>
      </defs>
      <use xlink:href="#DejaVuSans-4d"/>
      <use xlink:href="#DejaVuSans-6f" transform="translate(86.279297 0)"/>
      <use xlink:href="#DejaVuSans-64" transform="translate(147.460938 0)"/>
      <use xlink:href="#DejaVuSans-65" transform="translate(210.9375 0)"/>
      <use xlink:href="#DejaVuSans-72" transform="translate(272.460938 0)"/>
      <use xlink:href="#DejaVuSans-61" transform="translate(313.574219 0)"/>
      <use xlink:href="#DejaVuSans-74" transform="translate(374.853516 0)"/>
      <use xlink:href="#DejaVuSans-65" transform="translate(414.0625 0)"/>
      <use xlink:href="#DejaVuSans-20" transform="translate(475.585938 0)"/>
      <use xlink:href="#DejaVuSans-62" transform="translate(507.373047 0)"/>
      <use xlink:href="#DejaVuSans-69" transform="translate(570.849609 0)"/>
      <use xlink:href="#DejaVuSans-61" transform="translate(598.632812 0)"/>
      <use xlink:href="#DejaVuSans-73" transform="translate(659.912109 0)"/>
      <use xlink:href="#DejaVuSans-20" transform="translate(712.011719 0)"/>
      <use xlink:href="#DejaVuSans-28" transform="translate(743.798828 0)"/>
      <use xlink:href="#DejaVuSans-b1" transform="translate(782.8125 0)"/>
      <use xlink:href="#DejaVuSans-31" transform="translate(866.601562 0)"/>
      <use xlink:href="#DejaVuSans-30" transform="translate(930.224609 0)"/>
      <use xlink:href="#DejaVuSans-2d" transform="translate(993.847656 0)"/>
      <use xlink:href="#DejaVuSans-35" transform="translate(1029.931641 0)"/>
      <use xlink:href="#DejaVuSans-30" transform="translate(1093.554688 0)"/>
      <use xlink:href="#DejaVuSans-25" transform="translate(1157.177734 0)"/>
      <use xlink:href="#DejaVuSans-29" transform="translate(1252.197266 0)"/>
     </g>
    </g>
    <g id="patch_20">
     <path d="M 639.97223 433.602094 
L 657.97223 433.602094 
L 657.97223 427.302094 
L 639.97223 427.302094 
z
" style="fill: #2ca02c; stroke: #000000; stroke-linejoin: miter"/>
    </g>
    <g id="text_31">
     <!-- Minimal bias (&lt;±10%) -->
     <g transform="translate(665.17223 433.602094) scale(0.09 -0.09)">
      <defs>
       <path id="DejaVuSans-3c" d="M 4684 3150 
L 1459 2003 
L 4684 863 
L 4684 294 
L 678 1747 
L 678 2266 
L 4684 3719 
L 4684 3150 
z
" transform="scale(0.015625)"/>
      </defs>
      <use xlink:href="#DejaVuSans-4d"/>
      <use xlink:href="#DejaVuSans-69" transform="translate(86.279297 0)"/>
      <use xlink:href="#DejaVuSans-6e" transform="translate(114.0625 0)"/>
      <use xlink:href="#DejaVuSans-69" transform="translate(177.441406 0)"/>
      <use xlink:href="#DejaVuSans-6d" transform="translate(205.224609 0)"/>
      <use xlink:href="#DejaVuSans-61" transform="translate(302.636719 0)"/>
      <use xlink:href="#DejaVuSans-6c" transform="translate(363.916016 0)"/>
      <use xlink:href="#DejaVuSans-20" transform="translate(391.699219 0)"/>
      <use xlink:href="#DejaVuSans-62" transform="translate(423.486328 0)"/>
      <use xlink:href="#DejaVuSans-69" transform="translate(486.962891 0)"/>
      <use xlink:href="#DejaVuSans-61" transform="translate(514.746094 0)"/>
      <use xlink:href="#DejaVuSans-73" transform="translate(576.025391 0)"/>
      <use xlink:href="#DejaVuSans-20" transform="translate(628.125 0)"/>
      <use xlink:href="#DejaVuSans-28" transform="translate(659.912109 0)"/>
      <use xlink:href="#DejaVuSans-3c" transform="translate(698.925781 0)"/>
      <use xlink:href="#DejaVuSans-b1" transform="translate(782.714844 0)"/>
      <use xlink:href="#DejaVuSans-31" transform="translate(866.503906 0)"/>
      <use xlink:href="#DejaVuSans-30" transform="translate(930.126953 0)"/>
      <use xlink:href="#DejaVuSans-25" transform="translate(993.75 0)"/>
      <use xlink:href="#DejaVuSans-29" transform="translate(1088.769531 0)"/>
     </g>
    </g>
    <g id="patch_21">
     <path d="M 639.97223 446.812406 
L 657.97223 446.812406 
L 657.97223 440.512406 
L 639.97223 440.512406 
z
" style="fill: #d62728; stroke: #000000; stroke-linejoin: miter"/>
    </g>
    <g id="text_32">
     <!-- SEVERE OVERESTIMATE (&lt;-50%) -->
     <g transform="translate(665.17223 446.812406) scale(0.09 -0.09)">
      <defs>
       <path id="DejaVuSans-4f" d="M 2522 4238 
Q 1834 4238 1429 3725 
Q 1025 3213 1025 2328 
Q 1025 1447 1429 934 
Q 1834 422 2522 422 
Q 3209 422 3611 934 
Q 4013 1447 4013 2328 
Q 4013 3213 3611 3725 
Q 3209 4238 2522 4238 
z
M 2522 4750 
Q 3503 4750 4090 4092 
Q 4678 3434 4678 2328 
Q 4678 1225 4090 567 
Q 3503 -91 2522 -91 
Q 1538 -91 948 565 
Q 359 1222 359 2328 
Q 359 3434 948 4092 
Q 1538 4750 2522 4750 
z
" transform="scale(0.015625)"/>
      </defs>
      <use xlink:href="#DejaVuSans-53"/>
      <use xlink:href="#DejaVuSans-45" transform="translate(63.476562 0)"/>
      <use xlink:href="#DejaVuSans-56" transform="translate(126.660156 0)"/>
      <use xlink:href="#DejaVuSans-45" transform="translate(195.068359 0)"/>
      <use xlink:href="#DejaVuSans-52" transform="translate(258.251953 0)"/>
      <use xlink:href="#DejaVuSans-45" transform="translate(327.734375 0)"/>
      <use xlink:href="#DejaVuSans-20" transform="translate(390.917969 0)"/>
      <use xlink:href="#DejaVuSans-4f" transform="translate(422.705078 0)"/>
      <use xlink:href="#DejaVuSans-56" transform="translate(499.666016 0)"/>
      <use xlink:href="#DejaVuSans-45" transform="translate(568.074219 0)"/>
      <use xlink:href="#DejaVuSans-52" transform="translate(631.257812 0)"/>
      <use xlink:href="#DejaVuSans-45" transform="translate(700.740234 0)"/>
      <use xlink:href="#DejaVuSans-53" transform="translate(763.923828 0)"/>
      <use xlink:href="#DejaVuSans-54" transform="translate(827.400391 0)"/>
      <use xlink:href="#DejaVuSans-49" transform="translate(888.484375 0)"/>
      <use xlink:href="#DejaVuSans-4d" transform="translate(917.976562 0)"/>
      <use xlink:href="#DejaVuSans-41" transform="translate(1004.255859 0)"/>
      <use xlink:href="#DejaVuSans-54" transform="translate(1064.914062 0)"/>
      <use xlink:href="#DejaVuSans-45" transform="translate(1125.998047 0)"/>
      <use xlink:href="#DejaVuSans-20" transform="translate(1189.181641 0)"/>
      <use xlink:href="#DejaVuSans-28" transform="translate(1220.96875 0)"/>
      <use xlink:href="#DejaVuSans-3c" transform="translate(1259.982422 0)"/>
      <use xlink:href="#DejaVuSans-2d" transform="translate(1343.771484 0)"/>
      <use xlink:href="#DejaVuSans-35" transform="translate(1379.855469 0)"/>
      <use xlink:href="#DejaVuSans-30" transform="translate(1443.478516 0)"/>
      <use xlink:href="#DejaVuSans-25" transform="translate(1507.101562 0)"/>
      <use xlink:href="#DejaVuSans-29" transform="translate(1602.121094 0)"/>
     </g>
    </g>
   </g>
  </g>
 </g>
 <defs>
  <clipPath id="p910c6671ec">
   <rect x="173.671562" y="39.624125" width="658.767074" height="417.16"/>
  </clipPath>
 </defs>
</svg>
